<?xml version="1.0" encoding="UTF-8"?>
<svg xmlns="http://www.w3.org/2000/svg"
 viewBox="0 0 1600 1282"
 preserveAspectRatio="xMidYMid meet">
<metadata>
Created by potrace 1.16, written by Peter Selinger 2001-2019
</metadata>
<g aria-label="DealCircle" transform="translate(0.000000,1282.000000) scale(0.100000,-0.100000)"
fill="currentColor" stroke="none">
<path d="M8800 12690 c-19 -5 -73 -15 -120 -24 -47 -8 -110 -23 -140 -31 -124
-36 -216 -67 -242 -81 -14 -8 -31 -14 -38 -14 -25 0 -258 -122 -325 -170 -38
-28 -86 -61 -105 -74 -77 -52 -430 -439 -430 -471 0 -3 -8 -18 -19 -33 -66
-96 -181 -311 -181 -339 0 -3 -8 -24 -19 -47 -28 -61 -59 -146 -70 -191 -90
-353 -90 -369 -91 -1621 -1 -577 -3 -1059 -7 -1071 -7 -29 -28 -29 -73 -1
-106 68 -618 317 -653 318 -6 1 -30 9 -52 20 -22 11 -46 19 -52 20 -7 0 -32 8
-55 19 -24 10 -77 29 -118 41 -41 12 -97 30 -125 40 -46 16 -88 27 -190 53
-22 5 -62 16 -90 24 -27 8 -83 21 -125 28 -41 7 -104 18 -140 24 -36 7 -92 17
-125 22 -33 6 -85 16 -115 22 -95 20 -960 14 -1036 -6 -34 -9 -101 -21 -150
-26 -49 -5 -116 -17 -149 -25 -32 -9 -72 -16 -87 -16 -16 0 -44 -6 -62 -14
-18 -7 -53 -17 -77 -21 -40 -6 -128 -30 -204 -56 -16 -6 -82 -28 -145 -49 -63
-21 -140 -48 -170 -60 -30 -12 -79 -31 -108 -41 -130 -45 -459 -212 -617 -313
-189 -121 -182 -116 -214 -142 -14 -11 -33 -25 -42 -30 -9 -5 -34 -23 -55 -41
-21 -18 -80 -65 -130 -105 -421 -338 -665 -602 -972 -1053 -88 -129 -238 -386
-272 -465 -6 -14 -29 -61 -50 -105 -67 -140 -80 -171 -80 -186 0 -8 -7 -24
-15 -35 -8 -10 -15 -26 -15 -34 0 -8 -11 -37 -25 -65 -13 -27 -25 -57 -25 -65
0 -8 -7 -28 -15 -43 -8 -15 -17 -44 -21 -65 -4 -20 -20 -75 -36 -122 -16 -47
-36 -116 -44 -153 -7 -37 -18 -75 -23 -85 -5 -9 -12 -39 -16 -67 -4 -27 -13
-64 -20 -82 -8 -17 -18 -72 -24 -122 -6 -50 -16 -102 -21 -116 -9 -24 -28
-194 -50 -450 -21 -242 10 -832 50 -960 5 -16 15 -66 20 -110 6 -44 17 -102
25 -130 8 -27 24 -90 35 -140 24 -98 64 -239 84 -295 7 -19 24 -69 36 -110 62
-197 177 -455 294 -658 39 -68 78 -135 86 -150 45 -79 294 -435 362 -517 212
-254 620 -644 824 -785 12 -8 50 -35 84 -60 79 -57 159 -109 235 -155 95 -56
97 -58 150 -91 84 -53 294 -160 410 -208 61 -26 124 -53 140 -61 17 -8 48 -21
70 -29 22 -7 65 -24 95 -36 30 -12 75 -28 100 -35 25 -7 56 -17 70 -23 94 -39
387 -107 570 -133 41 -6 120 -17 175 -25 236 -35 831 -43 1030 -14 33 5 110
15 170 24 61 8 126 20 145 25 19 6 67 15 105 21 68 11 110 21 245 60 116 34
342 106 375 120 11 5 52 21 90 36 39 15 95 38 125 51 30 13 75 33 100 44 25
11 52 24 60 29 8 5 65 34 125 65 61 31 117 61 125 66 8 5 26 14 40 20 34 14
74 37 145 83 33 22 78 51 100 65 49 31 234 168 257 190 9 9 56 45 104 81 169
126 343 291 620 591 82 88 314 411 314 436 0 6 7 17 16 24 9 7 20 22 25 34 5
11 19 37 31 57 116 187 328 599 381 738 89 236 203 655 242 895 28 166 47 403
71 860 3 66 12 134 19 152 8 18 17 54 20 80 23 171 99 412 195 618 21 44 48
103 61 130 132 291 392 614 689 858 117 95 345 257 363 257 3 0 22 11 42 24
32 22 173 93 285 144 112 51 213 86 308 108 35 7 72 18 82 24 10 5 32 10 47
10 16 0 65 9 109 19 200 50 678 57 914 15 154 -28 215 -40 250 -52 19 -6 55
-15 80 -21 70 -15 339 -110 399 -141 9 -5 54 -26 101 -49 157 -75 440 -271
600 -415 63 -57 136 -117 195 -162 28 -20 79 -61 115 -89 99 -79 244 -155 360
-189 25 -8 59 -19 75 -24 43 -16 268 -42 353 -42 209 0 439 64 649 180 148 82
393 326 443 442 6 13 14 30 19 38 79 129 90 218 36 305 -56 91 -119 183 -195
284 -47 62 -92 123 -100 135 -219 319 -733 805 -1103 1042 -145 94 -197 126
-227 143 -51 28 -66 37 -90 53 -63 41 -326 178 -343 178 -11 0 -80 30 -139 61
-20 10 -42 19 -49 19 -6 0 -30 9 -53 19 -67 31 -144 61 -158 61 -7 1 -31 9
-53 20 -22 11 -46 19 -53 20 -7 0 -34 8 -60 19 -26 10 -83 29 -127 41 -44 12
-109 30 -145 40 -36 10 -87 24 -115 30 -27 6 -70 16 -95 21 -25 6 -79 19 -120
29 -41 10 -108 22 -149 25 -41 4 -88 12 -105 17 -29 9 -181 19 -536 34 -155 7
-585 -18 -620 -36 -8 -4 -53 -10 -100 -14 -84 -6 -136 -17 -385 -76 -71 -17
-157 -38 -190 -46 -33 -7 -78 -20 -100 -28 -22 -8 -47 -15 -55 -16 -8 0 -37
-8 -65 -19 -27 -10 -81 -28 -120 -40 -71 -23 -136 -48 -211 -82 -23 -11 -47
-19 -53 -19 -7 0 -29 -9 -49 -20 -20 -11 -82 -40 -137 -65 -156 -72 -354 -174
-415 -214 -14 -10 -36 -23 -50 -29 -176 -88 -660 -461 -860 -663 -136 -137
-247 -262 -384 -434 -158 -197 -192 -243 -241 -324 -5 -9 -27 -41 -47 -72 -21
-31 -38 -59 -38 -62 0 -4 -17 -32 -38 -64 -46 -69 -73 -111 -88 -138 -6 -11
-20 -36 -31 -56 -12 -20 -26 -45 -32 -55 -19 -34 -131 -273 -131 -280 0 -4 -9
-25 -19 -48 -35 -75 -86 -204 -126 -316 -7 -19 -21 -60 -32 -90 -49 -138 -98
-317 -133 -495 -6 -33 -19 -89 -27 -125 -9 -36 -21 -117 -28 -180 -7 -63 -18
-142 -23 -175 -14 -77 -30 -280 -43 -520 -11 -213 -19 -271 -55 -400 -13 -49
-31 -115 -39 -145 -13 -54 -35 -123 -73 -230 -20 -54 -82 -179 -125 -252 -12
-20 -37 -63 -56 -95 -44 -73 -64 -102 -166 -238 -57 -76 -87 -111 -173 -199
-119 -121 -206 -197 -297 -259 -39 -27 -99 -69 -134 -94 -63 -45 -261 -151
-331 -178 -19 -7 -60 -23 -90 -35 -143 -57 -310 -98 -560 -137 -156 -24 -519
-24 -632 0 -42 10 -102 17 -133 17 -31 0 -71 7 -91 15 -19 8 -62 19 -95 25
-34 6 -75 17 -92 24 -18 8 -48 19 -67 26 -98 34 -117 41 -135 50 -11 5 -53 23
-94 40 -354 151 -824 555 -1001 860 -11 19 -31 53 -45 75 -13 22 -47 87 -75
145 -29 58 -58 117 -66 132 -8 14 -14 32 -14 40 -1 7 -9 31 -20 53 -11 22 -19
46 -20 53 0 8 -7 26 -15 40 -8 15 -21 52 -29 82 -8 30 -26 98 -41 150 -15 52
-33 138 -40 190 -8 52 -19 124 -24 160 -13 78 -13 315 -2 420 25 223 65 431
97 509 8 18 14 43 14 55 1 11 9 39 20 61 11 22 19 45 20 51 0 6 21 57 46 115
158 359 298 566 555 817 58 56 119 113 134 125 15 12 51 40 79 62 88 70 314
209 416 257 124 57 147 68 190 83 25 9 61 21 80 26 19 5 51 16 70 24 102 39
252 72 450 97 106 13 539 4 595 -13 22 -6 74 -17 115 -25 89 -16 191 -41 240
-58 19 -7 73 -26 120 -41 496 -164 1050 -644 1280 -1109 53 -108 81 -136 88
-91 5 34 70 241 151 480 33 98 51 165 51 188 0 71 -248 349 -490 548 -36 30
-67 57 -70 60 -10 14 -277 198 -325 225 -11 6 -40 23 -65 37 -95 54 -289 146
-370 177 -47 18 -98 37 -115 44 -16 7 -82 25 -145 40 -63 15 -137 33 -165 41
-27 8 -70 17 -95 20 -25 4 -81 14 -125 23 -118 25 -791 25 -880 0 -33 -9 -85
-20 -115 -23 -30 -4 -66 -12 -80 -17 -14 -5 -54 -16 -90 -24 -123 -26 -261
-68 -346 -106 -22 -10 -45 -18 -51 -18 -12 0 -242 -116 -308 -155 -22 -14 -53
-32 -70 -41 -121 -68 -380 -261 -494 -369 -118 -111 -121 -115 -216 -225 -250
-291 -442 -588 -531 -821 -40 -106 -106 -297 -113 -329 -4 -19 -15 -57 -24
-85 -83 -262 -127 -764 -93 -1075 30 -267 80 -520 138 -685 26 -75 66 -183 78
-210 5 -11 23 -52 39 -92 17 -39 56 -115 86 -168 30 -54 55 -99 55 -100 0 -4
123 -188 146 -218 10 -13 26 -35 34 -47 8 -13 22 -30 30 -39 8 -9 37 -45 64
-81 121 -158 334 -365 506 -490 103 -76 215 -150 225 -150 5 0 16 -6 24 -14
36 -31 421 -226 447 -226 3 0 20 -6 37 -14 90 -41 402 -132 537 -156 36 -7 92
-17 125 -23 101 -19 776 -15 850 5 33 9 87 19 120 23 33 4 86 15 118 26 31 10
65 19 75 19 9 0 41 9 70 20 29 11 60 20 69 20 36 0 281 104 446 189 194 101
229 122 383 229 125 86 294 231 429 367 89 89 285 326 285 343 0 5 6 15 14 21
13 11 94 139 152 239 43 75 164 321 164 334 0 8 4 18 9 24 8 8 39 86 81 204 7
19 16 55 22 80 5 25 16 70 24 100 8 30 19 75 23 100 5 25 16 77 25 115 9 39
16 93 16 121 0 28 6 95 14 150 8 54 17 186 20 292 4 106 13 227 21 270 7 42
16 109 19 147 7 71 27 176 53 275 8 30 20 87 28 125 7 39 20 88 29 110 8 22
15 48 16 58 0 20 78 256 113 342 39 96 47 114 102 230 133 276 126 264 239
461 48 83 180 278 206 304 3 3 21 28 40 55 102 147 385 449 583 622 92 81 309
247 432 330 49 34 40 28 232 138 237 136 490 258 658 318 127 45 302 97 327
97 10 0 44 9 75 19 32 11 78 23 103 26 25 4 52 11 61 16 9 4 56 15 105 23 49
9 112 20 139 26 207 40 278 45 655 45 316 0 391 -3 475 -18 55 -10 152 -27
215 -38 155 -27 293 -58 363 -80 31 -11 65 -19 74 -19 19 0 123 -32 198 -61
28 -10 57 -19 65 -19 8 -1 33 -9 55 -20 22 -11 45 -19 51 -20 7 0 38 -12 70
-26 33 -14 75 -33 94 -41 63 -27 354 -175 380 -192 14 -10 33 -21 43 -24 10
-4 42 -22 70 -40 29 -19 95 -61 147 -95 133 -86 146 -95 288 -206 142 -111
165 -131 341 -295 175 -163 328 -339 445 -511 13 -19 38 -52 55 -74 17 -21 31
-48 31 -60 0 -20 -141 -166 -161 -166 -5 0 -41 -16 -81 -36 -161 -78 -422 -82
-617 -10 -83 31 -198 116 -356 261 -112 103 -234 205 -300 250 -27 19 -81 56
-120 83 -97 66 -202 130 -285 174 -19 10 -42 23 -50 28 -21 13 -188 90 -196
90 -4 0 -25 8 -48 19 -23 10 -66 28 -96 39 -72 26 -126 43 -410 127 -25 7 -67
16 -95 20 -27 4 -72 13 -100 20 -50 14 -312 39 -520 51 -133 7 -580 -29 -614
-50 -4 -3 -47 -10 -97 -17 -49 -6 -97 -15 -106 -20 -9 -5 -45 -15 -80 -23 -72
-17 -176 -52 -192 -65 -6 -5 -29 -13 -51 -17 -22 -4 -49 -13 -60 -20 -11 -8
-26 -14 -33 -14 -28 0 -325 -140 -437 -206 -22 -13 -53 -31 -70 -40 -198 -110
-416 -282 -641 -508 -212 -213 -392 -444 -508 -651 -9 -16 -27 -48 -40 -70
-32 -54 -156 -302 -156 -311 0 -4 -8 -26 -18 -48 -11 -23 -24 -59 -30 -81 -16
-60 -51 -156 -61 -169 -5 -6 -14 -31 -19 -56 -6 -25 -24 -94 -40 -155 -26 -97
-45 -198 -72 -372 -8 -50 -30 -339 -49 -653 -10 -151 -31 -299 -56 -386 -8
-28 -18 -73 -21 -100 -7 -50 -41 -177 -68 -249 -8 -22 -15 -48 -16 -58 0 -9
-9 -34 -20 -54 -11 -21 -20 -44 -20 -53 0 -8 -10 -39 -21 -70 -12 -30 -27 -71
-35 -90 -28 -77 -148 -346 -160 -360 -7 -8 -18 -26 -24 -40 -28 -60 -108 -193
-214 -355 -167 -255 -376 -498 -617 -716 -15 -13 -62 -56 -105 -96 -158 -143
-302 -247 -542 -390 -35 -21 -80 -48 -100 -60 -21 -12 -48 -27 -62 -32 -14 -6
-32 -15 -40 -20 -49 -31 -286 -141 -304 -141 -6 0 -29 -9 -50 -19 -21 -11 -52
-23 -69 -27 -18 -4 -48 -15 -67 -25 -19 -11 -42 -19 -52 -19 -10 0 -32 -6 -50
-14 -105 -46 -458 -128 -698 -163 -179 -25 -797 -26 -912 0 -42 9 -99 17 -126
17 -27 0 -82 8 -123 19 -41 10 -94 21 -119 25 -25 4 -65 13 -90 21 -25 8 -81
24 -125 36 -130 36 -331 105 -372 127 -12 7 -28 12 -35 12 -7 0 -50 18 -96 40
-46 22 -86 40 -90 40 -14 0 -283 140 -335 174 -30 20 -57 36 -60 36 -9 0 -179
117 -295 202 -235 173 -368 296 -571 522 -74 83 -137 153 -141 156 -3 3 -31
39 -62 80 -31 41 -67 86 -80 100 -12 14 -45 59 -73 100 -27 41 -52 77 -56 80
-3 3 -14 19 -23 35 -9 17 -27 48 -40 70 -13 22 -50 89 -81 150 -31 60 -60 114
-64 120 -4 5 -29 60 -55 120 -26 61 -53 124 -61 140 -8 17 -22 53 -33 80 -11
28 -29 75 -40 105 -12 30 -25 71 -28 90 -4 19 -12 44 -19 56 -8 11 -18 47 -24
78 -6 31 -13 62 -17 67 -9 15 -52 192 -59 247 -4 26 -13 72 -20 102 -48 194
-48 1014 -1 1230 8 36 19 97 24 135 12 84 48 250 57 266 4 6 13 36 20 67 7 32
23 89 35 127 12 39 29 95 37 125 8 30 22 64 29 75 8 11 14 26 14 35 0 8 9 32
20 53 11 20 20 42 20 49 0 6 9 30 19 52 11 23 34 73 51 111 124 271 209 416
410 699 158 223 508 584 728 751 155 117 194 146 254 188 38 26 70 47 73 47 3
0 27 15 53 34 43 30 105 65 252 142 49 26 159 76 260 118 36 16 81 35 100 44
46 21 242 89 305 107 184 50 258 68 315 76 35 5 94 15 130 23 209 46 763 73
970 46 47 -6 141 -17 210 -25 69 -7 152 -21 185 -29 32 -9 72 -16 87 -16 16 0
43 -6 61 -13 18 -8 50 -17 72 -21 22 -4 69 -16 105 -27 36 -11 97 -29 135 -41
84 -25 144 -47 250 -89 44 -17 96 -37 115 -45 41 -15 128 -60 375 -194 32 -17
91 -53 130 -78 38 -26 77 -51 86 -57 153 -97 318 -233 504 -415 50 -48 119
-118 154 -155 69 -72 80 -74 110 -23 11 18 35 53 53 77 l33 44 5 1646 5 1646
24 90 c43 165 62 230 82 271 10 23 19 47 19 54 0 6 6 24 14 38 8 15 29 59 47
97 94 200 221 362 389 494 80 63 164 121 174 121 3 0 32 16 65 35 50 30 71 34
93 21 2 0 5 -782 8 -1736 6 -1931 -1 -1770 72 -1705 33 30 50 43 123 92 49 34
62 42 111 71 22 12 57 34 79 47 22 13 54 31 70 39 72 38 90 54 100 87 7 22 8
677 5 1919 l-5 1885 -115 1 c-63 1 -131 -2 -150 -6z"/>
<path d="M9353 3528 c-6 -7 -16 -40 -22 -73 -7 -33 -18 -76 -25 -95 -8 -19
-18 -53 -24 -75 -20 -76 -50 -170 -77 -240 -60 -158 -62 -196 -8 -259 229
-273 564 -585 743 -691 10 -6 26 -17 35 -25 9 -8 25 -19 35 -25 9 -5 35 -20
56 -33 22 -12 53 -31 69 -42 69 -44 239 -129 390 -194 61 -26 129 -56 153 -67
23 -10 48 -19 55 -19 6 0 25 -7 41 -15 16 -8 54 -22 85 -30 109 -27 147 -37
216 -55 174 -46 485 -80 740 -80 158 0 447 22 515 40 19 5 62 12 95 15 33 4
92 15 130 26 135 38 210 60 240 70 17 6 44 16 60 21 17 6 49 19 73 29 23 11
50 19 58 19 9 0 28 7 42 15 15 8 61 28 102 45 127 53 304 144 414 213 54 34
152 98 161 105 6 4 33 23 60 42 28 19 52 37 55 40 3 3 21 17 40 30 32 23 140
117 318 277 254 230 584 292 877 166 93 -39 245 -161 245 -195 0 -23 -127
-205 -205 -293 -345 -392 -767 -754 -1135 -973 -79 -46 -400 -202 -418 -202
-5 0 -15 -6 -21 -14 -7 -8 -25 -18 -41 -21 -15 -3 -45 -15 -66 -26 -21 -10
-44 -19 -52 -19 -8 0 -26 -7 -40 -15 -29 -16 -88 -38 -162 -61 -25 -7 -92 -29
-150 -48 -142 -47 -205 -65 -271 -75 -32 -5 -81 -17 -110 -25 -29 -9 -71 -16
-93 -16 -23 0 -69 -7 -102 -15 -189 -44 -699 -68 -906 -42 -68 9 -154 18 -193
21 -103 9 -268 37 -490 85 -135 30 -361 99 -442 136 -17 8 -35 15 -39 15 -4 0
-26 8 -48 18 -23 10 -68 29 -101 42 -33 13 -85 34 -115 48 -30 13 -75 33 -100
44 -54 25 -139 66 -160 78 -8 5 -57 33 -109 62 -104 59 -100 56 -237 151 -131
89 -184 127 -272 195 -40 31 -85 66 -100 77 -57 42 -196 168 -319 287 -110
107 -121 111 -151 57 -23 -42 -144 -206 -225 -307 -53 -65 -65 -86 -58 -100
14 -25 156 -170 231 -235 36 -31 72 -63 80 -70 136 -124 501 -388 667 -482 29
-16 113 -64 186 -105 72 -42 173 -95 222 -119 50 -23 106 -51 126 -62 20 -10
43 -19 52 -19 8 0 20 -6 26 -14 7 -8 27 -18 44 -22 18 -3 43 -12 57 -19 14 -8
63 -26 110 -41 47 -14 99 -33 115 -40 17 -8 55 -21 85 -29 30 -9 87 -25 125
-36 39 -11 96 -26 129 -34 32 -7 70 -19 85 -25 14 -6 49 -14 76 -19 28 -5 79
-16 115 -24 88 -21 206 -38 492 -73 274 -33 727 -22 1083 27 205 27 597 110
635 134 6 4 35 13 63 20 29 7 84 25 122 40 39 14 83 30 99 35 31 10 175 66
261 102 231 97 447 207 625 320 129 82 376 249 435 293 106 80 179 139 201
160 11 11 58 54 105 95 212 189 338 318 517 530 71 83 302 410 302 426 0 3 17
36 39 72 74 129 73 174 -9 328 -143 270 -476 527 -795 615 -172 47 -514 53
-644 10 -35 -12 -68 -21 -74 -21 -51 0 -313 -140 -408 -218 -8 -6 -30 -24 -49
-40 -19 -16 -60 -49 -91 -73 -31 -24 -85 -68 -120 -97 -35 -30 -71 -59 -79
-65 -8 -7 -52 -43 -97 -80 -175 -143 -527 -348 -673 -392 -14 -4 -29 -11 -35
-15 -24 -19 -183 -69 -305 -96 -36 -8 -76 -19 -90 -24 -14 -6 -65 -17 -115
-26 -49 -8 -112 -20 -140 -26 -99 -22 -656 -14 -762 11 -51 11 -105 21 -120
21 -26 0 -84 14 -248 62 -215 63 -477 181 -650 292 -27 18 -72 47 -100 64
-176 113 -418 330 -585 528 -94 111 -207 277 -285 421 -22 41 -37 50 -52 31z"/>
</g>
</svg>
