<?xml version="1.0" encoding="UTF-8"?>
<svg id="Ebene_1" xmlns="http://www.w3.org/2000/svg" version="1.1" viewBox="0 0 420 432">
  <!-- Generator: Adobe Illustrator 30.3.0, SVG Export Plug-In . SVG Version: 2.1.3 Build 182)  -->
  <defs>
    <style>
      .st0 {
        fill: #9e9f9f;
      }

      .st1 {
        fill: #a4a5a5;
      }

      .st2 {
        fill: #cacac9;
      }

      .st3 {
        fill: #dfdfde;
      }

      .st4 {
        fill: #a2a3a3;
      }

      .st5 {
        fill: #dfdfdf;
      }

      .st6 {
        fill: #a9a9aa;
      }

      .st7 {
        fill: #d6d6d6;
      }

      .st8 {
        fill: #bdbdbd;
      }

      .st9 {
        fill: #a9a9a9;
      }

      .st10 {
        fill: #eaeaea;
      }

      .st11 {
        fill: #e3e3e3;
      }

      .st12 {
        fill: #d2d2d2;
      }

      .st13 {
        fill: #b5b5b5;
      }

      .st14 {
        fill: #9a9a9a;
      }

      .st15 {
        fill: #e9e9e8;
      }

      .st16 {
        fill: #d0d0d0;
      }

      .st17 {
        fill: #e2e2e2;
      }

      .st18 {
        fill: #9c9d9f;
      }

      .st19 {
        fill: #b3b4b3;
      }

      .st20 {
        fill: #999a9a;
      }

      .st21 {
        fill: #929395;
      }

      .st22 {
        fill: #ebebeb;
      }

      .st23 {
        fill: #f2f2f3;
      }

      .st24 {
        fill: #d9d9d9;
      }

      .st25 {
        fill: #a1a1a1;
      }

      .st26 {
        fill: #dbdbdb;
      }

      .st27 {
        fill: #a8a9a8;
      }

      .st28 {
        fill: #979797;
      }

      .st29 {
        fill: #cecece;
      }

      .st30 {
        fill: #a5a5a5;
      }

      .st31 {
        fill: #c1c1c1;
      }

      .st32 {
        fill: #bfc0c0;
      }

      .st33 {
        fill: #afb0af;
      }

      .st34 {
        fill: #aaa;
      }

      .st35 {
        fill: #d4d4d4;
      }

      .st36 {
        fill: #dedfdf;
      }

      .st37 {
        fill: #b4b4b4;
      }

      .st38 {
        fill: #e5e5e5;
      }

      .st39 {
        fill: #ccc;
      }

      .st40 {
        fill: #9d9d9d;
      }

      .st41 {
        fill: #d8d8d8;
      }

      .st42 {
        fill: #c3c3c3;
      }

      .st43 {
        fill: #c4c4c4;
      }

      .st44 {
        fill: #b1b1b1;
      }

      .st45 {
        fill: #dedede;
      }

      .st46 {
        fill: #a0a1a0;
      }

      .st47 {
        fill: #c6c6c6;
      }

      .st48 {
        fill: #a0a1a2;
      }

      .st49 {
        fill: #c0c1c0;
      }

      .st50 {
        fill: #a7a8a7;
      }

      .st51 {
        fill: #c8c9c8;
      }

      .st52 {
        fill: #c7c7c7;
      }

      .st53 {
        fill: #a6a6a6;
      }

      .st54 {
        fill: #ddd;
      }

      .st55 {
        fill: #9a9b9c;
      }

      .st56 {
        fill: #c9c9c9;
      }

      .st57 {
        fill: #e7e7e7;
      }

      .st58 {
        fill: #b0b0b0;
      }

      .st59 {
        fill: #d7d7d7;
      }

      .st60 {
        fill: #b7b7b7;
      }

      .st61 {
        fill: #9b9c9b;
      }

      .st62 {
        fill: #c8c8c7;
      }

      .st63 {
        fill: #9e9f9e;
      }

      .st64 {
        fill: #989a9a;
      }

      .st65 {
        fill: #9d9e9e;
      }

      .st66 {
        fill: #b4b5b4;
      }

      .st67 {
        fill: #bcbcbc;
      }

      .st68 {
        fill: #c5c5c5;
      }

      .st69 {
        fill: #a6a7a7;
      }

      .st70 {
        fill: #cdcdcd;
      }

      .st71 {
        fill: #9f9f9f;
      }

      .st72 {
        fill: #bababa;
      }

      .st73 {
        fill: #aaabaa;
      }

      .st74 {
        fill: #bbb;
      }

      .st75 {
        fill: #ebebea;
      }

      .st76 {
        fill: #9fa09f;
      }

      .st77 {
        fill: #e9e9e9;
      }

      .st78 {
        fill: #b8b8b8;
      }

      .st79 {
        fill: #a3a3a3;
      }

      .st80 {
        fill: #c6c7c7;
      }

      .st81 {
        fill: #f6f6f5;
      }

      .st82 {
        fill: #d5d5d5;
      }

      .st83 {
        fill: #a5a6a6;
      }

      .st84 {
        fill: #c2c3c2;
      }

      .st85 {
        fill: #acacac;
      }

      .st86 {
        fill: #d2d2d1;
      }

      .st87 {
        fill: #a2a2a2;
      }

      .st88 {
        fill: #d2d3d2;
      }

      .st89 {
        fill: #a1a2a2;
      }

      .st90 {
        fill: #b3b3b3;
      }

      .st91 {
        fill: #ababab;
      }

      .st92 {
        fill: #e1e1e1;
      }

      .st93 {
        fill: #bfbfbf;
      }

      .st94 {
        fill: #c2c2c2;
      }

      .st95 {
        fill: #b9b9b9;
      }

      .st96 {
        fill: #cbcbcb;
      }

      .st97 {
        fill: #aeaeae;
      }

      .st98 {
        fill: #dfe0e0;
      }

      .st99 {
        fill: #9e9e9e;
      }

      .st100 {
        fill: #989998;
      }

      .st101 {
        fill: #a8a8a8;
      }

      .st102 {
        fill: #a4a4a4;
      }

      .st103 {
        fill: #dddedd;
      }

      .st104 {
        fill: #ededed;
      }

      .st105 {
        fill: #c6c6c5;
      }

      .st106 {
        fill: #949695;
      }

      .st107 {
        fill: #adadad;
      }

      .st108 {
        fill: #9a9b9a;
      }

      .st109 {
        fill: #cdcccc;
      }

      .st110 {
        fill: #9b9c9c;
      }

      .st111 {
        fill: #c9cac9;
      }

      .st112 {
        fill: #adaead;
      }

      .st113 {
        fill: #c8c8c8;
      }

      .st114 {
        fill: #d3d3d3;
      }

      .st115 {
        fill: #afafaf;
      }

      .st116 {
        fill: #d1d1d1;
      }

      .st117 {
        fill: #dcdcdc;
      }

      .st118 {
        fill: #9c9d9d;
      }

      .st119 {
        fill: #b6b6b6;
      }

      .st120 {
        fill: #cacaca;
      }

      .st121 {
        fill: #a0a1a1;
      }

      .st122 {
        fill: #abacab;
      }

      .st123 {
        fill: #909192;
      }

      .st124 {
        fill: #cfcfcf;
      }

      .st125 {
        fill: #8f9190;
      }

      .st126 {
        fill: #b2b2b2;
      }

      .st127 {
        fill: #ececec;
      }
    </style>
  </defs>
  <path class="st86" d="M314.02,413.07c.95.88.5,1.04-.73,1.18,1.59.09,2.94.41,4.05.97l1.27,1.6c-.77,4.43-.56,8.96.64,13.57l-8.26,1.59h-4c-2.27-.78-4.72-.77-7,0h-4c-.36-.76-1.18-1.09-2.09-1.24.84-3.34,3.02-3.68,6.55-1.02.79-2.03,3.09-2.02,6.89.02.54-4.4,1.04-8.89,1.49-13.46l-1.43-2.1c-1.77.69-3.24.66-4.41-.09-1.04-1.36.32-1.95,4.07-1.77,2.28.26,4.45.79,6.96.75Z"/>
  <path class="st117" d="M330.01,413.96c.59-1.09,4.82-1.54,5.2.14,1.25,1.48.67,2.58-1.74,3.31l1.04,5.69c1.85,3.02,1.84,5.24-.01,6.65-1.23.48-2.72.89-4.48,1.24l-4.03.99h-5c-3.37-2.25-.14-5.07,3.42-2.21-1.25-4.72-1.11-9.23.44-13.53l3.26-1.25c-.66-1.44.7-1.88,1.9-1.04Z"/>
  <path class="st7" d="M323.51,415.2c-.37,4.84-.06,9.7.91,14.58-.55-.15-1.92.15-2.55.45-.52.25-.94.91-.86,1.76h-10c2.02-1.82,4.58-1.62,6.93-2.24-2.25-3.72-2.62-12.55-.58-14.52,1.2-.96,4.84-1.04,6.17-.02Z"/>
  <path class="st82" d="M14.91,410.64c1.21,3.4-2.97,5.04-3.86,1.38-.11,2.46-1.28,2.73-3.12,1.06l-1.56,2c-3.58-1.29-4.62,1.33-3.14,7.87l-1.42,2c1,.1,1.05.45.19,1.04-.3.57-.63.56-1,0H0S0,412.99,0,412.99c4.75-1.94,10.22-.97,14.9-2.35Z"/>
  <path class="st23" d="M1.01,157c.07,2.95.76,5.11,2.08,6.48l-1.98,1.3-1.1.21v-14.52s1,.53,1,.53c1.93.18,2.25,5.61,0,6Z"/>
  <path class="st22" d="M334.5,429.76c1.66-3.06,4.75-2.24,4.5,1.23v1h-2.01c-2.4-.35-4.72-.68-6.97-.99,1.01-1.35,2.92-1.22,4.48-1.24Z"/>
  <path class="st56" d="M330.03,430.99c2.33.08,5.12-.69,6.97.99h-11c.87-1.4,2.59-1.04,4.03-.99Z"/>
  <path class="st105" d="M307,431.99h-7c1.76-1.55,5.25-1.58,7,0Z"/>
  <path class="st114" d="M316.35,198.17c-.8,4.91-1.01,9.95-.62,15.11l.55,96.97c2.51,4.3,3.03,10.48.54,14.85-.6,3.25-2.23,6.44-5.03,8.68-2.73-1.05-4.34-4.49-3.42-7.42-2.61-6.69-3.8-13.87-3.59-21.52.23-36.03.18-71.96-.17-107.81l.9-6.34c.99-2.14,1.57-4.3,1.73-6.5.12-.89.4-.88.82-.05,4.01,3.3,6.14,9.33,8.28,14.04Z"/>
  <path class="st28" d="M225.13,5.31c-.64.6-.62,1.92-.81,2.75-6.06,15.48-5.67,32.7-2.26,48.96,1.08,3.2,2.06,6.53,2.94,9.99.58.46.54.83-.15,1.08.25,47.51.38,71.27.38,71.27l.75,18.99-1.95,1.5c-.17,1.69-1.17.39-1.99-.69-.15-.33-.75-.89-1.07-1.09l-4.25-5.02-.65-1.25c-.9-.65-1.83-1.7-2.25-2.7-.61-1.45-.92-15.62-.72-18.22,2.12-9.25,3.02-19.35,1.06-28.57,1.06-14.61,1.35-29.48.84-44.63l-1.3-4.33c.27-2.98.64-6.04,1.11-9.19l-.88-.99c-.06-5.85.01-11.82.22-17.91-1.66-3.74-1.69-7.03-.07-9.85-1.25-.26-1.3-1.11-.15-2.55,2.25-2.29,4.2-5.16,7.08-6.74,1.58-1.64,5.2-4.45,4.13-.82Z"/>
  <path class="st11" d="M113.15,219.66l1.33.18c-.04,1.68.12,3.56.48,5.64-.77,34.16-.98,68.29-.64,102.4-.08,1.84-.78,3.44-2.12,4.8-1.28-.28-2.34-1.34-3-2.91l-6.15-14.7-1.69-6.04c.18-2.68.65-5.12,1.4-7.31.65-16.68.9-33.41.75-50.17l-1.15-3.06c.88-2.4.8-4.54-.25-6.42.89-3.58,2.58-6.53,4.04-10.01,1.19-2.83.98-5.15,3.57-7.66,1.01-.98,1.53-4.07,2.69-4.99.37-.81.61-.7.73.24Z"/>
  <path class="st68" d="M290.35,157.26c.91,1.63,1.48,3.2,1.7,4.71l1.05,5.05c-.67,45.98-.88,91.93-.64,137.84l-2.01,1.15c0,.47-.03.92-.19,1.33-.12.32-4.67,2.99-5.27,2.67.48,2.75,1.13,7.56-1.18,8.95-1.21,1.91-1.56,1.24-1.52-.91,3.92-20.05,4.38-41.16-.03-61.19-.64-1.66.19-2.45,1.89-2.73-.06-31.58-.12-63.1-.18-94.57l.82-3.46c-2.02-2.15-2.24-4.83,1.09-4.33,1.41,1.76,3.01,3.76,4.46,5.49Z"/>
  <path class="st124" d="M305.95,180.96c1.08.73,1.67,1.94,1.29,3.23.8,1.05,2.39,2.51,1.92,3.43l-1.72,3.35c.36,1.92-1.33,5.14-.7,6.76.89,2.27.15,4.83.14,7.42l-.18,91.76c-.02,8.56.14,16.5,1.85,24.65.47,2.25,3.25,4.3.84,7.74l3.53.62c-1.52,1.67-1.12,2.6-1.15,3.86-.06,2.83-2.25,5.99-5.21,6.13-2.89,3.23-4.15-.16-5.05-3.04-1.14-22.92-1.21-46.15-.21-69.68-1.16-28.04-1.45-56.05-.89-84.03-.13-3.17.84-6.8,4.32-4.57l1.2,2.38Z"/>
  <path class="st83" d="M244.1,200.54c1.82,2.57,3.12,5.08,3.88,7.53-1.21,38.45-1.29,76.89-.25,115.31l.3,6.15c-.91,5.25-.5,10.3,1.22,15.14.09,3.05.68,5.68,1.75,7.87,1.06,1.07.71,2.64-1.07,4.71-.66,2.92-7.83,13.62-11.95,16.76-.45-.33-.44-.68,0-1.06-2.36-1.52-1.53-2.64,1.12-1.98-.63-2.29.31-4.62,2.81-6.99-.93-2.34-.92-5.08.05-8.22-1.17-5.64-2.08-11.33-2.72-17.05-.74-46.09-.57-91.73.52-136.95l-.79-2.94c.86-.71,1.14-2.55,3.06-1.27.89.59,1.33,2.27,2.06,2.99Z"/>
  <path class="st113" d="M293.34,161.91c.37,1.31,1.88,3.47,2.97,4.3l.62,2.04c-1.71,3.53-2.52,7.7-2.42,12.52-.29,29.86-.12,59.61.51,89.23l1.33.31c.59,21.51.87,43.2.87,65.08.75.11,1.36.26,1.44.55,1.28,4.74,2.02,11.85-.82,15.92-1.37.57-3.15,2.1-4.14,3.29-3.39,2.62-5.03.34-4.93-6.85-.38-13.59-.48-27.2-.3-40.82l1.99-1.46.47-39.02-.12-44,.3-56.89c-.34-.55-1.15-2.03-.95-2.61.22-.64.86-1.33,1.89-1.51-.04-1.72.36-1.46,1.29-.06Z"/>
  <path class="st87" d="M239.11,370.97c-1.97,1.39-3.01.62-3.31-1.71-.55-54.01-.9-107.95-1.05-161.83-.86,1.63-2.09,2.47-3.71,2.53.14,1.96-1.22,2.79-2.34.89,2.63-4.65,6.09-8.56,10.29-12.03l4.62,1.74-2.59,2.36c2.6,2.89-.12,6.28-.13,8.98l-.08,34.17.18,91.9c.02,9.2,5.85,17.62,1.17,23.61l3.39.93-6.44,8.46Z"/>
  <path class="st31" d="M285.89,151.77c-1.93,2.11,1.27,3.2,1.94,4.72.19.43-1.85,1.33-1.85,1.85l.2,103.57c0,3.68,2.44,6.96-.11,10.32,0-5.59-.98-10.11-2.1-15.4-.18-1.13-1.33-.72-1.7.02-2.18-9.88-4.97-19.86-9.72-28.7-.3-1.73.22-1.77,1.56-.13,1.14-.78,1.13.84.75,1.95l3.63,1.91c-.07-26.12-.19-52.42-.37-78.87l1.78-3.43c-1.98-1.51-2.56-3.03-1.73-4.55-3.36.86-4.04-1.01-3.1-4.1-2.55,1.7-6.79-3.58-4.96-5.94-2.88.45-3.48-.45-2.08-2.99-1.48-.92-1.39-1.38.38-1.26l7.01,7.87,10.49,13.16Z"/>
  <path class="st16" d="M139.28,234.95l2.26,1.13c.71,12.25.17,24.38-1.61,36.4l.89,5.65-.79,13.85,2.61,23.82v3.9c-1.79,1.9-2.21,4.64-1.26,8.24-2.31,10.38-3.49,20.88-3.55,31.5-.28,1.4-1.47,1.42-2.86.91-1.3,1.2-4.66-1.71-3.95-3.25.45-3.1,1.1-6.36,1.95-9.75-.02-34.54.2-69.1.66-103.7.42-14.51.99-29.06,1.7-43.67-1.17-6.65-2.38-14.97,1.38-20.94.4-.97,1.53-2.46,2.15-3.26,2.04-.16,2.9,1.05,2.59,3.63l-.94,50.58-1.23,4.95Z"/>
  <path class="st30" d="M205.8,178.69c1.72-.38,1.45.14.31,1.43-.21,1.58-.38,2.78-1.91,1.73-.33,2.13-1.26,4.63-3.39,2.98-1.51,8.96-1.83,18.04-.95,27.23-1.89,12.47-2.18,24.96-.89,37.45-1.12,11.4-1.51,22.76-1.17,34.09-1.26,2.47-1.83,5.22-1.71,8.25.93,21.43,1.03,42.83.3,64.18.78,2.81-.03,4.48-2.17,6.36-1.65,1.44,1.82-3.18,2.94-1.08-.52,2.84-4.22,5.43-5.71,7.81-1.01,1.21-1.78,1.47-2.32.77-3.45,2.82-3.82.31-1.18-2.64.57-10.98,1.28-22.04,2.14-33.17.56-28.75,1.24-57.56,2.04-86.43l.98-.68c-.78-.08-1.97-.34-2-.88-.9-14.1-.35-31.24.63-45.4-1.93-7.34,2.17-11.58,7.38-15.87,1.54-2.73,4.52-4.4,6.7-6.15Z"/>
  <path class="st120" d="M300.87,349.25c-1.01.96-1.47,1.95-3.04,2.6l.34-14.8c-1.15.03-1.32,1.15-1.35,1.51-.09,1.67-1.6-.65-1.6-1.96l-.2-66.6c-.62-29.55-.79-59.2-.51-88.96-.24-2.49.26-4.31,1.5-5.44,2.39-5.02,6.58,1.68,4.51,6.08-.05,50.34.05,100.74.29,151.2.82,3.39,1.64,6.76,2.45,10.13l-2.38,6.26Z"/>
  <path class="st87" d="M201.06,211.74c3.16-.13,2.99,10.43-.05,11.25l-2.08,7.05c1.82.43,2.45,2.3,1.87,5.6.71,2.71.86,5.66.47,8.85.68,1.92.89,2.1,2.69.49-.41-2.02,1.92-14.28,2.57-14.66.4-.24.91-.28,1.45-.27.61-3.05,1.64-5.39,3.09-7.03.77-1.23,1.05-1.36,1.39.12-12.17,29.88-16.04,62.5-8.27,94.37l5.06,17.48c-1.34,1.82-2.39,1.39-3.3-.6l-5.05-16.32c.05,9.53-.63,18.93-2.04,28.21,1.92,4.54,1.19,7.44-.56,11.66.37.9-.99,2.48-1.16,3.39-1.36.43-1.77,2.17-4.53,1.68,3.15-2.84,2.57-5.57,2.56-9.02l-.14-43.92-.25-6.18-.07-12.14,1.07-6.74.24-21.94c2.03-13.6.5-27.11,1.12-41.07.32-7.25,3.51-14.54,1.58-22.04-1.32-5.15.02-13.3,2.09-15.12l1.44.5c-.41,8.82-.8,17.62-1.18,26.4Z"/>
  <path class="st39" d="M304.75,178.58c-2.51,1.17-2.64,2.73-2.65,5.4l-.26,61.96.9,9.32c1.53,15.92-.5,31.6-.22,47.71l.59,33.7c.03,1.85,2.33,3.19,3.45,3.23.37,1.65-3.79,7.52-5.7,9.34,1.64-9.94-2.07-13.01-2.07-16.29l-.04-75.95-.14-66.96.18-10.33c.02-.85,1.47-1.84-.19-2.98-.64-.44-1.08-1.97-2.62-1.15-1.74-1.95-1.18-8.32,2.53-6.39,2.72,2.31,4.63,6.22,6.22,9.38Z"/>
  <path class="st12" d="M136.71,179.05l-.33,8.13c-.28,10.03,1.12,19.69-.23,29.89l-.1,18.89c-.02,3.48-.99,6.43-.99,10.11l.02,90.83c0,3.08-1.85,5.93-.86,9.09.8,2.55-1.11,4.39-1.58,6.43-.39,1.67.93,3.96-1.63,4.68-1.19.82-2.34-.84-1.27-1.89-.16-12.03-.06-24.22.3-36.56-.28-33.46.37-66.8,1.07-100.07,1.85-6.51,3.37-15.35.69-21.61-2.55-.62-2.6-4.38-1.85-6.49,1.9-4.68,3.84-10.37,6.75-11.42Z"/>
  <path class="st107" d="M188.14,287.04c.77.1,1.88.3,2,.88.37,1.87.14,6.87-.03,9,.56,2.81-.11,4.55-2.02,5.22-.81,1.68-1.49,3.32-1.63,5.2-1.48,19.2-1.47,38.86-1.01,58.03-.45,2.06-1.32,4.61-3.5,3.64-.72,1.58-4.81-4.57-4.75-5.03.56-2.72,1.34-5.25,2.34-7.59,1.44-46.33,2.49-92.58,3.17-138.76l.76-2.54c-1.51-3.95-1.67-7.65-.49-11.12.76-2.7,2.44-5.38,5.02-8.04.05-.09.39-.31.61-.42l1.75,3.84c-.15,26.68-.45,53.21-.9,79.59l-1.31,8.1Z"/>
  <path class="st118" d="M213.24,43.4c1.71,1.73,1.95,5.4.19,7.07.6,2.38,1.12,4.94,1.57,7.67.53,14.83.25,29.35-.84,43.54,1.3,8.13,1.36,16.33.16,24.6-1.88,5.25-2.07,10.36-.44,15.69.57,2.96-.14,4.71-2.12,5.23-1.85-1.43-2.99-3.28-3.98-5.1-2.23-5.47-2.61-11.26-1.91-17.29-.57-10.25-.07-20.57,1.51-30.94l-1.36-12.86c1.73-10.51,1.51-20.68-.65-30.51.85-6.65.9-13.36.15-20.15l.93-5.04c-3.37-2.38,1.8-6.56,4.52-7.23,3.26,3.94,3.95,9.19,2.07,15.75.82,3.58.89,6.77.2,9.57Z"/>
  <path class="st89" d="M203,133.18c-3.9-1.3-5.83-8.61-6.26-12.75l.43-73.92c-.63-2.89-1.03-5.71-1.21-8.49-.18-2.15.75-4.63,2.8-7.45,1.64-2.14,2.47-5.44,5.36-6.65,1.77,1.53,1.31,3.63-1.39,6.3,4.56,5.65,3.73,13.63,2.88,20.35,1.51,9.91,1.64,19.93.4,30.07,1.86,7.94,1.64,15.52-.67,22.72.19,9.63.21,19.28.06,28.97l-2.41.85Z"/>
  <path class="st7" d="M129.96,190.48c2.01,1.54,1.66,4.19,1.85,6.49,1.52,4.93,1.79,10.32.82,16.17-1.56,5.01-2.22,10.17-2,15.49.46,11.91.23,23.75-.68,35.53l-.21,91.05,1.27,1.89c1.02,1.53,2.35,2.6,3.95,3.25,2.33-1.31,2.72-.8,2.24,1.68,2.78.43,2.47,1.8-.21,2.28-5.2-3.88-10.94-8.5-13.26-14.66l-1.38-1.69c1.72-23.89,2.23-47.75,1.52-71.6,1.21-1.85,1.86-4.06,1.97-6.62l-1.99-.93.32-44.1c2.42-8.75,3.08-17.88,1.97-27.37.21-1.44.8-2.93,1.77-4.01.09-.42.11-1.72.42-2.38.22-.47.85-.75,1.65-.47Z"/>
  <path class="st8" d="M160.17,101.99l3.33,5.38c-.63,8.76-.07,17.24,1.67,25.45.81.17,1.79.55,1.79,1.19-.02,15.89-.21,31.85-1.32,47.69,1.88,9.71-.1,17.1-2.75,26.26.37,2.2-1.98,6.73-3.94,8-3.69,2.21-3.65-2.11-1.99-4.96.3-22.66.45-45.3.46-67.92l1.53-8.15-1.28-1.02c-.89-2.19-.36-6.97,1.09-8.84-.51-5.73-1.06-11.45-1.65-17.17l-1.09-.91c-.36-1.52-.41-3.49-.98-4.97-2.16-8.33,2.93-5.37,5.12-.03Z"/>
  <path class="st54" d="M120.06,206.46c.42-.29.86-.53,1.31-.59,3.53-.46,2.16,11.68,1.42,14.16.55,8.21.58,16.42.52,24.64,0,.88-.36,1.76-.73,2.68s-.88,1.79-1.42,2.65l-.86,5.76c.11,24.17.03,48.45-.24,72.83.11,4.96-1.33,8.24-4.33,9.83-.87.23-1.38-.06-1.48-.52l-.52-2.39c.85-31.14.97-62.8.35-94.99l.88-14.96c-.29-2.43-.89-4.39-1.81-5.88l-.73-.24c.1-3.08,2.01-5.92,4.55-8.85.92-1.07.4-4.82,3.09-4.11Z"/>
  <path class="st84" d="M173.99,215.99c1.95,1,1.25,2.94-.95,3.01-1.83,5.41-3.75,10.77-5.76,16.1l-2.49.5c-1.03,5.5-1.72,11.07-2.05,16.7l.16,63.01c-1.7,3.25-1.76,7.1-.17,11.53l-1.02,1.13c3.48,3.02,5.6,8,4.22,12.76l2.27.29c1.2,4.46,2.59,8.79,4.18,13.01,2.08-.4,3.35,3.18,2.53,5.02,3.76-.58,4.61,3.03,1.82,5.31-10.97-14.52-22.2-46.68-22.23-63.68l-.05-29.53c1.82-20.53,8.85-39.44,19.18-56.41,1.72-.63,1.89.11.36,1.25Z"/>
  <path class="st115" d="M181.94,369.01c2.57-1.13,3.03.18,1.02,2,2.04-.04,4.09-.41,6.15-1.11l2.32-.77c-1.5,2.39-3.24,4.59-5.9,6.74-4.14-2.78-5.91-7.68-8.8-11.51.02-1.88-.59-4.08-1.82-5.31-1.02-2.2-.33-2.65,1.96-2.43,2.07-46.01,2.75-93.08,3.28-139.37.76-1.36,1.1-2.74,1-4.14-2.63-.47-2.61-2.4-.98-4.08-1.91-.51-.74-2.16.81-3.03.25-1.09.76-2.22,1.98-2.03l1.32,7.35-.6,29.62c-.08,3.73-1.23,7.18-.9,11.11,1.49,17.78.25,35.13.28,52.89.02,9.45-1.44,17.76-1.73,27.11l-.96,31.31-2.03-.2c-.42-.04-1.05.86-.42,1.53l4.01,4.32Z"/>
  <path class="st7" d="M318.01,201.83l1.4,11.37c-.58.52-1.03,1.03-1.02,1.53.91,30.41,1.46,61.64,1.71,91.37.22,1.81.69,3.5,1.42,5.07.93,1.59-.59,5.06-1.65,6.81-.06,2.74-.76,5.58-3.06,7.13.72-3.86-.26-10.69-2.45-14.38l-.23-34.69-.59-56.58c-.06-5.47,1.77-10.93-.6-16.51,1.56-1.66,2.45-2.97,3.39-4.75.56,1.22,1.15,2.34,1.66,3.65Z"/>
  <path class="st63" d="M232.01,83.02c.94,1.03,2.17,2.67,1.69,3.88,1.37,3.38,1.71,6.69,1,9.93,1.08,3.62,1.21,7.7.4,12.24,1.28,19.01.85,37.73-1.29,56.17,1.62,2.34,2.51,5.51-.9,5.93l-5.12-4.84c-1.45-2.36-5.3-4.24-5.75-7.17l1.99.69,1.84-.84-.62-48.16c1.48-10.14,2.04-20.37,1.68-30.69l2.04-1.22c1.47-.73,2.63,2.5,3.04,4.08Z"/>
  <path class="st28" d="M223.99,386.96c.61.52.33,1.37-.84,2.55-2.29,1.52-4.75,4.42-7.12,5.73-2.19,1.09-3.39.76-3.61-1,.83-14.05,1.06-28.13.68-42.24-.63-.93-.03-2.29.9-3.01,1.68-6.84,3.92-13.27,6.73-19.32,2.46-1.29,3.16.43,4,2.68.94,14.4,1.2,28.83.79,43.3,3.39,5.11,2.48,6.86-1.52,11.31Z"/>
  <path class="st0" d="M212,17.01c1.22,1.52.66,2.08-1.03,1.06-1.38,1.43-2.97,2.55-5.36,4.58,1.11-.12,3.28,1.57,2.68,3.16-1.64,4.38-.2,12.59-1.05,22.1-.39,4.34,3.91,13.35.8,29.11-.8,4.03-.47,5.71.32,9.51,1.22,5.9.7,13.01.21,19.1-.2,2.46-1.73,4.58-1.68,7.32l.34,19.89c.02,1.42,1.8,3.61,1.47,4.65-1.28,1.81-1.45,2.92-.91,4.6-.61-1.12-2.1-2.62-2.92-3.74-1.11-1.86-1.73-3.59-1.86-5.18,4.53-10.27-1.94-21.85.56-30.92.92-3.32,2.42-5.42,2.04-9.4l-1.17-12.17.55-27.44c.01-.69-1.96-2.25-1.66-2.77l1.47-2.53c.73-6.52-.69-15.39-5.28-17.36,2.68-2.25,3.69-4.43,4.61-6.66,1.51-3.66,5.06-6.24,7.78-9.01,1.84-.35.98.88.09,2.09Z"/>
  <path class="st100" d="M227.07,179.12c3.83,3.27,5.19,6.05,4.07,8.33,1.36,1.07,2.04,2.32,2.04,3.76-3.44,3.36-6.51,6.99-9.22,10.89-.38,1.33-1.19,1.95-1.73,2.94l-4.28,5.92-.69,2.03c-.93,1.66-2.02,2.7-3.27,3.12l-1.62-2.15c.62-9.62.49-19.26-.38-28.93.44-3.99,1.43-7.71,2.95-11.16-1.26-1.32,2.73-3.56,3.94-3.23,1.43.4,6.88,6.77,8.18,8.46Z"/>
  <path class="st24" d="M127.9,193.32l.36,9.35.19,12.22c.06,3.7-1.74,6.47-2.29,9.21l-.32,45.64-1.06,6.63c-.91,1.77-1.89,1.17-2.97-.53l-1.54-1.86c-.43-7.99-.66-16.08.91-23.98.37-9.81.23-19.68-.36-30.02.89-5.71,1.89-11.43-.74-13.51-.13-.98.78-1.84.85-2.49.52-1.38,1.29-2.38,2.28-3,.31-2.89,2.02-6.53,4.69-7.64Z"/>
  <path class="st30" d="M203,133.18c1.12.95,1.72,3.49,1.86,5.18-2.8-3.84-5.85-7.69-7.69-12.19-2.25-3.5-3.66-6.93-4.23-10.29,1.24-.3,1.1-1.63-.41-3.97.46-11.21.64-22.45.55-33.72-1.2-6.65-1.74-13.59-.26-20.25l-1.85-4.14,1.95-10.85c-1.12-.44,0-2.48,1.04-2.96.17-1.29.67-2.46,2-1.97.74-.23,1.79.08,1.75.56l-.15,1.74c1.17,1.77,1.63,4.22,1.61,6.71l-.53,76.47c-.03,4.12,1.09,6.92,4.35,9.67Z"/>
  <path class="st6" d="M199.1,184.84c-1.12,2-3.19,3.48-4.7,5.61-2.32,3.26-.35,8.04-.72,11.4-.6,5.37-.76,9.88-.73,15.17l.15,29.96c-.31,1.89-.69,2.56-.98.82l-.34,31.63c.1,4.56-1.11,7.1-3.63,7.62l.05-63.01c.05-9.92-.36-19.16.4-28.52,2.82-4.06,5.97-8.34,10.51-10.67Z"/>
  <path class="st121" d="M238,176.05c-.33.39-.59.68-.62.66-1.7-1.37-3.22-2.96-4.48-4.76-2.09-1.68-3.75-3.41-5.11-5.61,2.21.48,3.39,1.99,4.98,3.94,1.57-2.21-.65-3.49-1.56-4.3,1.28-2.22,1.76-4.23,1.84-6.97l.72-26.03c.3-10.76-1.88-23.23.31-33.63-2.51-2.23-.88-4.33-.51-6.53.35-2.08-1.08-4.46.14-5.9,2.51,2.06,4.31,5.41,5.4,10.05.31,25.75.39,51.59.23,77.54l-1.33,1.56Z"/>
  <path class="st20" d="M214.81,44.18c.6,2.44.8,4.82,3.13,7.32-1.5.56-2.48,1.19-3.07,2.21-.51.88,1.94,2.66,1.95,3.63l.32,28.01c.04,3.89-.35,7.26-2.16,10.6.82.8,1.91,1.88,1.77,2.89l-1.72,2.81c-.47.77,1.59,2.44,1.63,3.51.17,5.12.85,10.59-.24,15.49-1.86,8.38-1.89,16.62-.52,25.36.12.79-1.89,2.34-1.43,2.92.72.91,1.12,1.96,1.59,2.86-2.51-.24-2.99-3.58-4.3-4.6-.11-1.81.31-3.35.66-5.04-2.45-4.98-2.38-11.22.84-16.18l.08-35.8c.02-7.91-.62-15.42.09-23.42l-.36-12.84-2.28-3.86c2.39-1.4,3.48-4.54,2.46-6.67.67-1.61,1.2-1.35,1.57.78Z"/>
  <path class="st5" d="M102.9,408.04c1.14.03,1.83.38,2.08,1.04,2.85.04,5.27.53,7.26,1.46.93-.15,1.57.03,1.92.54,1.78,3.36,2.12,7.28,1.01,11.75.91.1,1.47.79,1.69,2.06.94-2.53,1.46-2.65,2.39-.06,1.7-2.39,3.8-2.17,3.9.98l-6.24,1.1-114.75.06c-.85,0-1.2-.62-1.16-1h1c2.88-.61,6-.78,9.37-.51.97-2.2,1.82-1.73,2.63.51,4.77-.78,10.43-1.05,15,0,5.1-.91,11.88-.92,17,0,6.69-.4,13.36-.74,20-1-.41-2.17,1.77-1.38,3.08-.18.19-2.92,2.33-2.65,3.21.04-.32-2.28,1.04-2.28,4.07,0-.28-1.96,1.18-1.93,4.39.09-.2-1.7,1.28-1.74,4.44-.12.75-3.3,2.41-1.75,4.07.37.96-3.89,6.07-1.84,8.75-.22,1.84-1.53,1.79-4-.14-7.41l.71-6.29c-1.87-.39-2.78-1.01-2.02-3.07,2.21-.47,4.45-1.09,6.34-.14Z"/>
  <path class="st39" d="M148.11,243.9c-4.02,10.92-6.63,22.58-7.29,34.23-1.04-1.2-1.27-2.41-1.12-3.95-.76,2.14-2.17,1.86-2.25-.11,2.63-3.34,1.5-7.48,2.33-10.42,1.17-4.17.03-6.83-.36-10.99-.55-5.81,1.21-12.3-.13-17.7l1.23-5.1c.43-19.32.75-38.54.96-57.68.37-2.8,1.44-4.52,3.2-5.16,4.1,1.77,4.72,7.74,2.67,11.39.19,19.85.04,39.45-.46,58.8,3.97.6-2.08,9-1.85,8.52.81-1.73,1.82-3.81,3.08-1.81Z"/>
  <path class="st41" d="M321.88,212.67l.39,1.32-3.31,1.09c.55,0,1.07.03,1.51.24,1.83.86,2.43,28.72,1.94,32.23-.24,12.89.25,25.8,1.46,38.73-.41,4.56.05,8.54,1.4,11.94,1.85.21.25,5.21-1.29,5.75,0,2.34-.15,5.96-2.47,7.18-1.3.01-2.55-.5-2.79-1.56l-.62-2.81-.27-28.81c-.15-15.49-.17-30.47.03-45.97.1-8.44.33-16.35-1.23-24.13.82-1.89.65-4.34,1.37-6.06,1.69,4.36,3.53,10.18,3.87,10.84Z"/>
  <path class="st13" d="M257.03,344.01c-.52-.3-.53-.66-.07-1.07-3.77-1.47.17-6.21,2.23-8.05-1.58-3.27,1.14-8.81,4.1-10.86-.78-.29-1.67-.82-1.58-1.46.9-6.01,1.97-11.88,3.12-17.85-1.63-.55-2.58-1.32-2.82-3.11-.69-7.78-.08-15.19,1.83-22.24-2.84-4.61-3.11-11.7,1.66-15.23-1.17-7.78-2.49-15.5-3.96-23.17l.78-2.07c-4.74-3.52-5.8-10.25-6.31-15.93-2.26,1.1-3.24-.9-2.95-5.99-3.05.26-3.64-1.32-1.03-2.99-.57-.66-.49-1.03.4-1.19,12.01,19.75,18.18,43.42,17.52,67.1l-.55,19.67c-1.59,15.77-5.28,30.81-12.35,44.43Z"/>
  <path class="st92" d="M101.37,309.02l-1.94-9.71c-.54-2.7-1.19-4.84-.37-7.26-1.27-1.27-.39-2.96.84-4.44l.08-23.05-.97.39c-.15.63-.26,1.09-1.01,1.04-.13.88-.39.85-.77-.02.02-.83,2.39-13.88,3.53-18.48l1.35-5.42c.18.19.61.53.86.49.4-.07,1.15-.43,1.36-1.68.86.26,1.47,1.09,1.66,1.68s-.08,2.21-.76,2.69c-2.53,1.76.26,4.57.26,6.13l-.02,34.55c0,2.27-1.4,4.08-1.15,6.54.53,5.18-1.41,10.75.39,15.89.34.96,2.15,2.19,2.02,3.01-.17,1.07-1.36,1.99-2.39,2.53l-1.54-7.11c-1.11.64-1.09,1.66-1.42,2.24Z"/>
  <path class="st51" d="M149.78,230.31c1.29.92,1.82,2.5,1.58,4.74l-3.26,8.85c-1.39.03-1.68,1.68-3.31,2.34,1.24-6.18,3.54-9.23-.64-13.05-.49-.45,1.46-1.89,1.46-2.63l-.21-23.56c-.09-9.83-.68-19.03-.01-28.96.08-1.23,2.47-3.02,1.48-5.02s-2.13-3.92-2.2-6.01c-.52-2.1,2.18-7.79,4.38-8.05l1.34,1.93c1.17,23.12.97,46.26-.61,69.42Z"/>
  <path class="st122" d="M193.97,40l-1.04,2.96c-.52,5.33-1.86,10.5-4.04,15.5l2.26,3.53,1.73,15.17c-.98,6.61-1.6,13.3-1.87,20.06.85,3.16.46,5.68-1.15,7.54,1.98,3.93,3,7.64,3.07,11.12l4.23,10.29c-18.07-27.67-19.57-58.48-3.7-87.38,1.73-.97,1.84-.24.51,1.21Z"/>
  <path class="st25" d="M209.26,334.98c.42,1.44-.53,2.69-.97,4.09l-9.01,19.07c-.47-.34-.83-.27-.96-.21-1.99-1.63.5-4.23.26-5.71-.38-2.34-2.33-4.39-1.48-7.21,1.87-6.21.94-12.57,1.43-18.74s.58-13.01.17-18.53l-.81-11.08c-.28-3.84-1.2-8.55.63-12.42.83,16.71,3.12,32.11,8.65,47.63.52,1.45.75,2.63,2.11,3.1Z"/>
  <path class="st5" d="M113.74,335.49c-.62.17-1.29-.03-1.42-.47-.21-.68-.22-1.76-.11-2.35-2.22-1.75.74-3.61.74-4.96l.2-108.06c1.11-.29,2.14-.88,3.67-.85.37,1.75-.26,2.65-1.98,3.34,3.35,2.77,1.45,4.72,1.06,7.38-1.68,11.52-.41,23.02-.33,34.7l.27,40.06-.17,26.45c-.01,2.22.1,3.68-1.94,4.77Z"/>
  <path class="st79" d="M237.95,91.72l3.06,5.29c1.11.44,2.12,2.5.68,3.1l1.44,2.98c.8,11.2.64,22.25-.46,33.13l.41,42.7-1.99,1.2c-.33.81-.7.75-1.12-.09-1.37-1.41-2.03-2.73-1.97-3.97-.7-1.73-.95-3.7-.93-6.02l.12-13.93c.04-4.88.35-9.23.38-14.1l.15-32.95c.04-7.94.55-17.43-4.01-22.14-.86-.89-1.69-2.63-1.69-3.88-.36-.55-.3-.92.32-1.2,1.44,3.24,4.73,6.21,5.62,9.91Z"/>
  <path class="st71" d="M241.01,415.98c-2.74.08-6.82-2.27-8.95-4.22-1.54-.09-3.04-.89-4.25-1.87-.53.04-1.35-.68-1.85-.79-2.63-1.37-4.9-3.03-6.8-4.98l5.96-4.27c2.36-3.08,5.56-6.32,9.04-7.74,2.84-2.98,6.37-5.08,5.69.71,1.63,1.36,2.82,2.36,3.48,4.57.37,1.24.62,17.32-.03,17.96l-2.29.64Z"/>
  <path class="st43" d="M290.45,306.01l-.14,29.82c-.01,2.32,1.2,4.54.55,7.21-.75,3.13.71,12.2.64,12.16.46.23,1.55-.08,2.19-.06l-5.67,6.84c-3.89,2.67-6.67,6.77-11,8.04-.88-.26-.87-.58-.02-.97-.98-2.18-.18-3.17,2.11-2.08-.73-2.64,1.26-3.73,3.65-2.7-.11-2.63.6-3.94,2.9-5.21-4.19-12.42-4.31-28.38-.64-41.02.36-2.64.6-5.39-.02-8.03.55-.9,1.35-2.13,1.66-2.96.44-1.2,2.79-1.06,3.79-1.03Z"/>
  <path class="st41" d="M123.73,349.65c-2.71-.89-3.62-1.98-3.57-4.89-1.05-1.48-1.09-3.55-.14-6.21.31-20.67.46-41.35.44-62.03l1.33-.69c1.03.22,1.96-.22,2.42-1.57l1.61-4.53.23,44.23c.05,8.87-.35,17.17-1,26-.26,3.49.34,6.71-1.32,9.68Z"/>
  <path class="st99" d="M227.07,179.12c-3.07-2.04-5.23-5.3-8.39-7.77-1.29-.35-2.95,1.69-3.72,2.53-1.34,3.53-2.32,7.27-2.95,11.2.76,8.42.15,16.97-.78,25.42.97,6.5-.11,13.01-3.24,19.54l-4.02,14.93c-1.66,2.48-2.79.6-2.96-2.05l3.09-16.93c-.23-10.76-.31-21.59-.24-32.49.91-4.49,1.66-8.95,2.25-13.38,1.07-1.55,2.28-3.09,3.65-4.62,2.53-2.04,5.36-4.81,9.19-5.7l6.34,5.89c1.2,1.12,1.62,2.19,1.78,3.42Z"/>
  <path class="st26" d="M121.79,275.83l.24,62.14c.01,2.73-.69,4.94-1.87,6.79-3.03-.32-4.28-3.52-4.43-6.36,3.8-9.94,3.16-23.2,3.15-35.43l-.02-34.97c0-6.42.17-12.63,2.31-18.01-.32,8.63-.34,17.27.63,25.84Z"/>
  <path class="st26" d="M325.47,224.96l.35.97c-.6,3.78-.48,7.75.37,11.89-1.16,14.98-1.55,30.07-1.16,45.26,2.08-.22,2.68.8,1.8,3.06,1.2,3.67,2.05,10.42-1.55,12.08-.81-.17-1.6.32-1.85,1-.23.64.4,2.15-1.46,2.9.26-8.15,0-16.37-.36-25.19l-.86-20.95c-.24-5.95-.65-11.03.7-16.6.64-2.64-1.23-5.89-1.43-8.3-.46-5.7.93-11.06-1.08-15.99,2.23-2.37,3.89-1.29,5,3.24l1.51,6.63Z"/>
  <path class="st68" d="M158.95,215.96l3.94-8c.07-2.41.55-7.26,3.13-6.94.54-.87.9-.86,1.24.13l-1.52,4.55-10.96,22.08-3.4,7.26c-.22-.29-.22-.73-.91-1.03-.59,1.01-.6,3.03-3.29,3.35l2.62-7.06c.92-20.27,1.41-40.69,1.45-61.26-.88-6.53-1.55-14.97,1.46-20.96.1-.2.5-.24.99-.24,2.13.33,3.48,2.07,4.04,5.22l-.67,21.94c.75,14.67.3,28.93-1.36,42.79l3.26-1.82Z"/>
  <path class="st70" d="M149.06,158.95c-2.24,2.23-3.2,5.4-4.38,8.05-.8,1.78-2.08,2.77-1.16,5.57,1.04,3.16-.34,6.96-.37,10.38l-.31,33.07-.76,14.75c-.06,1.09-3.17,2.99-2.8,4.17-.37-1.5-.4-2.47-.38-4.96l.31-45.01c.02-3.35.72-6.23-.34-9.19.2-1.97.97-4.38,2.37-6.51,3.36-5.09,5.8-10.21,8.1-15.34,2.42-1.08,2.26,5.45-.27,5.01Z"/>
  <path class="st25" d="M214,348.99c-.15.99-.3,2.16-.9,3.01,1.31,2.74-.96,9.61-4.38,8.89-1.3,3.99-1.74,7.87-1.32,11.65-1.49,3.01-1.59,6.35-.28,10.03-2.12,3.47-2.99,6.99-2.61,10.55,1.75,3.26,1.81,9.63-2.8,9.21-.18-.02,2.75-2.16,2.48.52-.55.33-1.5.89-1.86,1.32-2.39,1.42-4.79,2.32-7.18,2.7-1.25-1.77-1.31-4.02-.21-6.73l.33-4.41c-1.48-6.22-1.25-11.81.67-16.76-1.18.05-1.17-.65.04-2.1.61-.43,1.38-1.29,1.72-1.95,2.41-2.5,4.54-5.24,6.39-8.22l9.55-18.88c.78-.32.61.33.37,1.16Z"/>
  <path class="st68" d="M158.76,125.07c-.1,2.82-.33,6.16-1.09,8.84.45.22.86.46,1.16.81.49.58-1.9,14.01-5.14,13.12-.98,3.44-1.96,5.04-1.78,9.01l.43,9.4c2.85,20.55-3.24,46.38-.82,60.99.26,1.55-1.35,2.39-1.74,3.06-2.06-7.76-.15-17.85-.11-26.29l.14-34.96c.01-3.5-1.97-6.83-.76-10.1.58-1.58,1.27-3.64.27-5.01,4.78-10.66,8.02-22.22,7.75-33.94,1.4.46,1.96,2.14,1.68,5.06Z"/>
  <path class="st114" d="M76.98,174.97l-2.67,13.16-.22,185.7c2.01,2.45,1.72,5.6,1.78,8.15-.58,1.57-.6,3.26-.06,5.06l2.32,9.01c.24,1.93-.53,1.95-1.16.04-3.29.85-4.28-4.23-1.88-6-2.28-.05-2.41-.48-2.81-2.48-.87-64.61-1.21-129.36-1.03-194.23l1.74-1.23c-1.68-1.68-1.01-14.91-.3-15.92.5-.71,1.32-1.03,2.14-1.2,1.44-1.71,2.16-1.74,2.15-.07Z"/>
  <path class="st70" d="M142.63,315.8l4.71,19.92c1,7.13-1.98,3.32-2.75-1.4l-.66.62c1.16,5.08.41,9.37-2.24,12.85l-.73,14.23c-1.19,1.91-2.44,1.85-3.75.01-1.13,0-1.6-1.33-2.24-1.68,2.63-2.14.88-5.49,1.16-8.28.5-4.89.57-9.31,1.31-14.07.8-5.11,3.2-10.32,1.17-15.74,1.78-2.21,2.08-5.27-.11-7.91,0-6.77-1.45-13.05.08-19.48.74,8.73,1.2,17.39,3.03,24.92.5-2.29.59-3.16,1.01-4Z"/>
  <path class="st79" d="M251.91,421.06c-.51-.25-1.31-.1-1.84-.17l-5.03-2.84c-1.86-.28-3.21-.97-4.03-2.07,1.42-3.85.57-7.53.23-12.08-.19-2.57,1.33-5.89-1.04-8.15-.71-.68-2.13-1.39-2.3-2.4-.15-.91.22-2,.68-3.05l-4.42,1.8c1.34-2.44,3.33-4.62,5.62-6.09,2.17-4.47,5.22-1.54,7.52,1.53,2.07,2.76,3.24,6.72.92,9.71,2.01,5.78,2.06,12.13,1.59,18.19,2.67.64,4.79,4.21,2.1,5.62Z"/>
  <path class="st108" d="M226.81,219.71c.08,14.88.27,29.62.56,44.21,1.11,1.69,1.08,6.17-.38,8.08,3.06.61,3.02,9.19.04,10.02l-1.13.66c-1.25-14.85-2.62-30.77-8.32-44.53-.39-1.43-.29-2.88.37-4.2l6.72-15.09c2.15-2.21,2.94-2.3,2.16.85Z"/>
  <path class="st45" d="M330.84,243.03c-.67,1.62-.61,3.39.16,4.97.03.99.04,2.06-.2,2.96-.12,6.98-.39,13.99-.83,21.03.92.05,1.29.76,1.09,2.14-.31.75-.26,2.29-1.01,2.91l-.51-.21.44,6.24c-.04.19-.16.71-.05.91-1.06,1.51-1.3,3.23-.71,5.16-.38,5.37-2.16,11.62-4.04,16.87-1.87,2.65-2.03.41-1.19-2.02l1.29-5.75c2.97-5.31.93-9.87-.25-15.14-.45-15.08-.05-30.01,1.2-44.8-.83-3.16-.66-5.56.52-7.2-.23-1.9.21-2.27,1.33-1.12,1.11,4.36,2.62,8.62,2.76,13.07Z"/>
  <path class="st40" d="M212.99,397.17c-1.69,2.44-6.06,4.02-8.8,5.69-1.2-.12-2.32.21-3.65-.64l3.02-2.27c1.93-1.45-4.42-8.43.82-15.6,1.79-2.44.24-5.47-1.38-7.53.84-1.33,2.96-3.75,2.35-5.64-1.62-5.01,1.43-7.13,3.36-10.29l2.47,1.67c.97,10.96,1.03,21.94.16,32.94l1.65,1.67Z"/>
  <path class="st14" d="M216.03,395.24c-.82.45-2.27,1.4-3.03,1.93-1.07.04-1.97.92-3.72.33l.38-12.18c.26-8.28,1.34-16.41-.94-24.43,1.63-2.66,2.53-6.23,4.38-8.89,3.03,2.1,2.15,6.46,2.12,10.14l-.26,29.8c0,.75-.92,1.87-.69,2.27.25.45,1.07.9,1.76,1.03Z"/>
  <path class="st9" d="M199.45,165.23l7.65,3.33-9.58,6.51c-1.78,1.88-12.98,11.69-13.81,11.37-.37-.14-.61-.61-.75-1.18-.29-1.16,5-22.43,6.07-22.95,1.52-.74,8.78,1.91,10.42,2.92Z"/>
  <path class="st90" d="M392.11,155.92l-1.71,1.08,1.57,1.15c.23,9.91.32,19.84.26,29.78-.46,5.26-.86,10.27-1.21,15.03,3.96-.36,4.32,6.35,4.02,9.18,3.06-.68,3.44,5.12,2.1,6.86l2.14.5,1.85,6.59c.1-2.96,2.01-2.68,2.8-.09.29-.88,2.3-.65,3.06.01l-8.97,2.07c-2.54-11.73-7.36-21.76-12.05-31.96-.96-1.23-2.36-3.14-1.14-4.17,1.41-12.61,1.36-25.05-.14-37.34l2.39.2c1.08-1.15,4.69-.55,5.02,1.1Z"/>
  <path class="st92" d="M342.22,411.17c.87.79,2.71,1.06,5.52.8l.64,1.48c-1.42,4.73-2.48,9.63-3.19,14.71l-2.66.56c.28.39-.24.82-1.56,1.26.9.13.9.46.09.96l-2.04.04c-1.28-1.06-2.87-1.24-4.5-1.23-.03-2.38-1.68-4.48-2.13-7.05l-1.29-7.35c1.87.01,3.43-.31,4.13-1.25-2.87-.21-2.79-1.12-.27-2.31,2.5-.62,4.76-.5,7.27-.62Z"/>
  <path class="st119" d="M274.4,369.78c.91,1.96-3.5,4.45-5.36,4.31-1.37,1.48-3.03,2.86-4.97,4.14-1.09.16-2.94,1.2-3.75,1.9-2.05,1.15-5.33,2.83-4.34-.25l5.64-9.03c1.8-1.83,3.2-3.95,4.22-6.37.04-.8.57-1.86,1.17-2.39,2.03-3.87,4.05-7.56,6.06-11.07.29-.45.6-.83,1-.98,1.11-.43,2.36,13.76,2.3,15.53.76.86.1,2.26-1.97,4.21Z"/>
  <path class="st94" d="M400.17,156.97c-2.53,2.44-3.92,2.42-4.18-.04-.31,2.79-1.6,2.46-3.88-1.01-1.59-1.36-3.39-.68-5.02-1.1-1.25,1.72-2.95,1.42-5.12-.89-1.25-.03-1.3.98-.16,3.03-.01,8.93-.16,17.82-.45,26.69-.88.83-2.16.76-3.82-.21-2.35.11-4.49-3.55-5.29-5.98.23-7.88,0-15.7-.65-23.48l1.49-2.06c.13-.88.4-.84.77.03.77-.74,2.15-1.05,4.13-.92,7.41,1.95,15.04,3.1,22.17,5.96Z"/>
  <path class="st124" d="M74.1,373.83l.22-185.7-.22,185.7Z"/>
  <path class="st103" d="M115.86,152.12c4.61-.69,5.62,1.64,3.02,6.97.53,4.59-.86,6.84-4.17,6.78-.44.98-3.13.85-4.02,0l.04-2.29c2.54-.77,1.89-8.24-.26-8.61-6.63-1.16-8.9.73-7.11,7.17,1.91.76,2.62,1.98,2.12,3.64-1.18.52-2.67.93-4.47,1.23.87.3.85.63-.01,1.01l-9.99.96c-3.02.57-2.82-.73.61-3.92l.76-11.93,4.99-.91c0-.79.25-.79.72-.09,5.53-1.25,12.19-.99,17.77,0Z"/>
  <path class="st98" d="M343,146.01l.95,1.02c.2-.82,1.4-.68,2.05-.03l2.19,1.07c.3,5.08-.28,10.1-1.75,15.05,1.34.13,2.26,1.37,2.77,3.71l-2.34.1-10.99-2.93c-2.41-.64-5.75.94-7.51-1.29-.14-2.05.36-2.75,2.35-2.74-.81-4.57-.76-9.2.17-13.89l6.27.13c1.02-.79,4.81-1.86,5.83-.21Z"/>
  <path class="st101" d="M248.41,387.44c1.61,1.9,3.13,3.75,4.55,5.56.96-.48,2.7,1.08,2.03,2.19.72,14.89,1.09,22.34,1.09,22.34,1.88,2.23,2.5,4.81-1.05,4.45l-1.16.04-1.95-.97c.23-2.13-1.38-3.66-4.07-4.2.41-6.9.38-13.36-1.54-19.69,2.55-5.06,1.49-10.24-3.87-12.86l-2.65,1.71c.29-1.44.96-2.69,2.76-3.98,1.86,1.66,3.99,3.75,5.87,5.41Z"/>
  <path class="st0" d="M412.08,350.65c2.21.73,4.5,1.34,6.7,2.23l-1.68,9.06-2.12,6.06-2,6.94c-.34,1.76-1.02,3.13-2.04,4.11l-1.53.33c-.38-7.59-1.56-15.07-3.55-22.45-.38-3.29.13-5.9,1.55-7.83.77-1.36,3.51.51,4.68,1.55Z"/>
  <path class="st60" d="M396.02,368.01c2.86.9.7,5.4-2.1,4.77.54,3.19-1.18,5.57-3.56,7.55.45,11.16.74,22.32.86,33.48.07,3.31-.83,5.3-2.7,5.99.23,1.06-2.49,1.78-3.52,1.2l-1.12-.99c.42-9.73.48-19.51.16-29.35l.89-.67c-2.5.07-2.95-.55-1.94-2.88-1.36-.38-.21-1.67.93-2.16l2.08-3.16,9.63-15.05c.76-.48.88-.06.38,1.26Z"/>
  <path class="st114" d="M86.02,152.1l.23,1.18c-2.97,2.74-2.84,6.85.39,12.31l-.76,2.36c-.02.87-.33.84-.87.05-.44,1.13-1.45,2.15-3.04,3.06-2.37.6-5.17.97-4.99,3.9l-2.15.07c-3.26-1.8-2.41-21.12-1.42-21.94l4.05-.91c2.41-1.04,6.11-1.07,8.56-.08Z"/>
  <path class="st110" d="M227.02,282.02c5.4-3.74,2.73,8.43-.24,1.48.41,15.25-.87,30.3-3.83,45.14l-2.22,1.03-6.73,19.32c.04-.29.23-.83-.37-1.16,6.27-16.62,9.55-33.99,11.01-52.28,1.57-19.69-2.01-38.79-7.07-57.39,1.74.25,1.54,1.8,1.98,3.24,3.85,12.43,6.54,24.57,6.43,37.71-.01,1.39.04,2.42,1.04,2.91Z"/>
  <path class="st34" d="M400.17,156.97c1.09.01,3.55.32,4.7,1.38l6.51,53.59c.23,1.94-.58,1.95-1.23.03-.51.07-.99.08-1.36-.13-2.24-1.22-3.24-27.5-2.9-31.84-.55-.06-.99-.14-1.04-.34-1.27-4.32-1.62-13.11-.9-17.66-1.25-1.24-2.64-1.9-4.17-1.99.42-1.79-.07-2.07-.84.03.96,10.33.86,20.45-.31,30.35l-1.49-.05-1.54-.63c-.72-10.59-1.03-21.3-.93-32.14l1.34-.65,4.18.04Z"/>
  <path class="st41" d="M89,405.98c6.29.46,8.57,3.32,6.82,8.58-.58,3.62.32,6.32,2.71,8.09l-.53,2.3-8.75.22c-1.64-.4-2.44-1.28-3.28-2.58-2.08-3.23-4.44-15.54-.81-18.12,1.59-.31,2.91.29,3.84,1.51Z"/>
  <path class="st39" d="M314.56,160.71c-1.14.58-2.66,1.02-4.56,1.3.28.4-.06.73-1.01.99l-3.58.39c-3.82-3.71-6.86-8.36-9.48-12.84,1.88-.86,3.18-2.09,3.91-3.68l3.43-.75c5.65-1.54,10.5-2.64,8.62,4.98-.52,3.66.07,6,1.78,7.01l.9,2.61Z"/>
  <path class="st47" d="M383.93,384.96l-.93,2.16c.12,1.71-1.44,4.3-3.33,3.46l-2.78,7.47c.47,8.21.12,16.27-1.05,24.18-.72,1.11-1.64,1.67-2.75,1.69.31,1.39-2.87.7-3.79.14-1.11-.68-.72-23.23.66-25.74.5-.9,1.57-1.9,2.56-2.17,1.23-1.66,2.27-3.57,4.24-5.44l6.18-5.86c.36-.42.69-.37,1,.12Z"/>
  <path class="st8" d="M164.17,374.02c2.79,2.74,4.54,6.18,6.9,10.29-4.96-1.82-9.37-3.34-13.02-6.09-1.8-.92-3.17-2.07-4.11-3.44-1.14-4.53-2.02-11.63-.09-15.77l1.31-.26c2.7,5.29,5.7,10.38,9.01,15.27Z"/>
  <path class="st47" d="M373.1,151.91c1.68,6.64.94,16.16.82,24.52-.05,3.81.91,4.82,3.62,7,3.11-.56,5.23,1.77,4.66,4.88,2.72-1.31,4.24,1.28,2.63,3.63l1.14,4.17c-.02-.14-1.06-.42-1.29-.86-3.43-6.54-8.89-11.07-13.25-16.08-2.75-1.59-2.84-3.39-2-6.11.05-7.36-.19-14.73-.74-22.11,1.11-1.63,5.18-1.17,4.4.95Z"/>
  <path class="st124" d="M372.99,425.92l-5.76,1.1c-2.87.16-5.56-.26-8.08-1.28.89-5.81,1.49-11.61,1.82-17.42-.86-1.4-.85-2.45.02-3.13-1.04-1.33.64-1.67,2.05-1.9,1.41-2.41,3.66-4.14,5.87-5.22,1.15.23,1.03,1.63-.35,4.2l.06,20.5c1.8-.22,3.45,1.84,4.36,3.14Z"/>
  <path class="st68" d="M149.76,350.05c2.23,3.12,2.05,8.56,1.04,12.08,2.83.94,3.56,7.11.33,7.84-.2,1.23.03,2.17.81,3.09,1.66-1.46,1.94-.1,2.02,1.72,2.13.22,2.93,2.55,4.11,3.44-4.24-1.32-7.73-4.01-11.3-6.37-1.55-1.42-2.48-3.34-2.75-5.35-.64-4.75,1.02-18.96,1.95-24.2,1.14-6.4,6,5.28,3.8,7.75Z"/>
  <path class="st47" d="M145.93,407.14c2.59.44,3.68,2.82,3.27,7.13l-.65,5.9,3.46,1.16c.27-3.15,4.17-3.55,5-.35.87.28.86.61,0,.98l-10.94,2.05-8.39-.17c-2.05-.87-.4-13.11.3-14.47,1.29-2.52,5.66-3.44,7.97-2.25Z"/>
  <path class="st35" d="M85.16,404.48c-.27,7.24.95,14.2,4.09,20.7l-4.07-.37c-6.46-1.18-8.8-5.95-7.02-14.32-1.57-8.14-.21-10.84,4.1-8.1l1.86.11c.62.04,1.12,1.46,1.03,1.99Z"/>
  <path class="st54" d="M357.6,147.27c1.03,2.56.06,2.94-1.79.86-1.17,1.88-1.57,4.01-1.2,6.4-1.43,2.65-1.78,5.36-1.06,8.12-.69,1.87-1.51,3.63-2.45,5.27-1.65.2-2.99-.66-4.22-.99.33-.59.69-.89.8-1.67-7.16-.17.41-7.07-1.67-18.26,1.59-.56,3.46-1.04,5.02-1.03,2.63,2.06,5.32-.8,6.58,1.29Z"/>
  <path class="st96" d="M143.13,369.32c-2.48-1.26-4.01-3.42-6.14-5l.21-2.28c.67-.02,1.63-.28,2.07-.94.31-.47.27-1.61.28-2.57l.15-11.83c5.6-3.98,1.9-7.92,4.23-11.75,3.26,3.26,3.93,5.76,2.03,7.52-1.65,6.86-1.78,19.62-1.06,26.56.12,1.19-.68,1.24-1.77.3Z"/>
  <path class="st116" d="M302,144.07c1.95.73,4.06.72,6-.05.83,0,2.16-.24,2.91.14l7.94-.09.53,1.04c-1.5,3.75-1.93,7.82-1.27,12.21,2.76.26,4.06,1.49,3.9,3.68-1.56.78-5.67.8-7.44-.29-1.34-.87-2.96-1.07-4.58-1.43.4-4.62-.91-8.47.8-12.98-2.41-.43-4.82-.28-7.52-.19-2.91,2.14-6.45,3.53-6.26-1.1l5-.94Z"/>
  <path class="st47" d="M301,412.99c1.38,1,1.08,2.19-.9,3.58-.01,4.43.11,8.81.37,13.16-2.41-.46-4.52.63-6.55,1.02-5.21.99-10.64-1.22-15.88-1.78-.88-.26-.87-.59-.02-.98l1.1-2.08c1.77,1.08,3.41,2.07,4.92,2.97.84-2.85,2.99-2.24,4.65-.12.22-1.6.93-2.19,2.37-1.84-1.07-3.06-1.75-5.95.22-8.79-1.5-4.42-.26-6.46,3.72-6.12,1.3-1,4.88-.19,6,.98Z"/>
  <path class="st120" d="M298.53,169.19c-2.76,1.65-2.65,4.04-2.53,6.39-.28,1.41-1.06,3.19-1.06,5.45l.07,88.95c-.38.06-1.03-.32-1.03-1.13l.08-88.79c0-3.91.78-7.13-.13-10.93l2.38-2.94c1.02.78,1.35,2.24,2.23,2.99Z"/>
  <path class="st117" d="M96.55,408.19c1.14,1.53,3.72.5,4.98.81l1.62,1.58c.27.27-2.26.52-2.49.91-2.08,3.55-.85,11.17,4.61,12.84-3.01,1.15-5.06.57-7.27.63l-3.43-3.43c-1.24-4.76-.85-9.43.24-13.67-3.14.35-4.78-.53-5.81-1.87,2.4.06,6.37-.38,7.55,2.2Z"/>
  <path class="st7" d="M363.05,403.29c-.43.74-1.37,1.41-2.05,1.9-.23,6.36-.73,12.73-1.52,19.12,1.57,1.43,2.07,2.71,1.49,3.85-2.09.38-4.21.58-6.24,1.08-1.49-.09-2.46-.57-2.9-1.45-.73-1.25-.55-2.82.53-4.73l-.39-12.49,1.95-1.45c-1.79-.06-1.53-.87.8-2.42,2.52-.81,4.76-4.86,8.34-3.41Z"/>
  <path class="st12" d="M82.27,402.38l-3.36,1.03c3.58,9.42-2.27,17.65,4.17,19.76,1.04.34,1.76.92,2.11,1.64l-4.44.12c-9.67-1-7.95-21.26-5.93-27.78l2.15-1.05,1.16-.04c.63,2.45,2.34,4.48,4.15,6.32Z"/>
  <path class="st70" d="M363.94,149.92c1.81-1.03,3.18-1,4.11.08,2.17.27,2.78.9.68,1.34.54,1.95,1.15,25.16-.15,25.3-.47.05-.96-.1-1.46-.31-1.65-.97-4.11-1.76-5.12-3.49-.47-2.05-.32-4.47.45-7.28l.13-14.95,1.35-.69Z"/>
  <path class="st54" d="M332.99,143.98c2.3-.05,1.56,1.1-.72,1.31,1.86.12,3.49.42,4.89.92-1.44.04-2.82,1.08-5.05.91l.13,8.79c.04,2.91,1.75,4.6,4.1,5.83-3.34.4-5.76-.31-7.97.96-.34.19-.98.28-1.38.28-.87-.28-.86-.62,0-.99-.86-.34-.84-.71.04-1.09-1.69-4.13-1.33-9.01-.21-14.13-1.3.29-1.84-.4-2.55-1.67-2.7,2.6-4.34,2.61-4.9,0-2.88,0-5.91.36-8.47-.95,5.65-1.39,11.13-1.61,17.22-.28l4.85.1Z"/>
  <path class="st36" d="M354.71,406.7c-.2.91-.82,1.8-.8,2.42-.36,1.58-.83,2.26-2.31,2.34-.86,5.66-.78,11.1.23,16.33,1-.12,2.38.18,2.9,1.45-2.51.62-4.99.78-7.74.77-1.62-.35-3.11-.78-4.46-1.29,4.67-6.68-.37-13.28,4.8-15.33-1.63-.92-3.33-.18-4.43-.24-.63-.03-1.36-.81-.67-1.99,4.26-.21,8.23-3.1,12.49-4.47Z"/>
  <path class="st41" d="M355.81,148.13c4.4-1.41,3.73,16.03,3.16,17.51-.67,1.74-1.51,2.89-3.01,4.23-.96-.96-3.51-2.11-4.86-1.95-.37-.91-.69-1.84-2.57-2.44,1.2-.55,2.15-1.41,2.95-2.61.63-.94-.91-3.64-.34-4.72,1.91-3.66,2.77-7.16-.87-10.07,2.81-.78,4.08.01,5.54.05Z"/>
  <path class="st39" d="M146.99,406.97c-.22.93-.57.99-1.06.17l-5.8,1.14-1.99,14.89c3.69-.42,6.19-.59,7.92.85-2.71.51-5.38.58-8.06,1.07-2.68.08-5.03-.33-7.05-1.24-.26-1.85.33-3.89,1.76-6.12.87-2.79,1.15-5.66.81-8.61l-.69-1.69c4.43-.63,8.87-1.16,13.22-2.28,2.52-.47,2.75-.06.94,1.83Z"/>
  <path class="st82" d="M120.99,410c.64-.88,3.86-.72,4.88.15,3.36-.53,3.29,3.62,3.18,6.24-1.01,2.85-1.12,5.3-.33,7.36,1.02-2.51,1.44-2.57,2.21.1,2.36.1,5.19-.44,7.05,1.24l-4.98.91c-1.94-.78-4.06-.8-6.02-.04-1.11,0-2.83.31-3.84-.14-1.26-.56-2.4-1.01-3.9-.98-1.52-.29-1.62-1.63-.31-4.02,1.8-.38,2.14-2.41,1-6.08-1.39-1.73-1.86-3.24-1.41-4.52.13-1,1.77-.93,2.47-.23Z"/>
  <path class="st120" d="M372.51,396.15c-1.78,2.4-2.54,3.12-2.34,6.94l.93,17.93-.08,2.36c-.03.82,1.25.63,2.06.55,1.14-2.4,1.75-2.4,2.9-.01.88.3.87.66.01,1.07l-3,.94c-2.23-1.49-4.45-1.11-8.56-1.1,3.54-2.61,2.16-4.78,2.19-7.75.04-4.97.99-9.91.39-14.99-.12-1.01,2.45-2.92,1.92-4.01,1.06-.52,1.87-2.54,3.59-1.93Z"/>
  <path class="st35" d="M359.99,147.03c1.31.7,1.26,1.37-.16,2.02l2.47.27c1.09.27.21,19.73-.96,21.95-.18.34-.79.46-1.51.52-1.7.19-2.75-.79-3.87-1.91-.09-.9-.51-1.52-2.36-2.3,1-.87,2.14-1.07,3.67-1.53l-.16-14.04c-.02-1.5-.85-2.9-1.3-3.86.69.02,1.31-.67,1.79-.86.67-.28,1.69-.27,2.39-.24Z"/>
  <path class="st8" d="M177.4,172.1c-.53,1.73-1.26,1.75-1.45-.11-.75-.21-1.84-.57-1.86-1.16-.07-2.23,2.07-17.61,2.78-19.68l2.18-1.14-1.03-5.02-1.96-2.29c-.74-6.75-1.83-13.46-3.26-20.14-1.54-2.14-2.09-4.01-1.64-5.61-1.64.3-3.11-3.67-2.17-4.91-.79-.75-.7-1.12.44-1.26,11.33,18.13,13.14,40.69,7.96,61.35Z"/>
  <path class="st124" d="M132.05,152.1c.52-1.22,8.34-.4,8.42.34.06.5-.16,1.03-.45,1.57l-6.06,11.89c-.93,1.24-2.1,1.9-3.35.86-.81-.21-1.58-.62-1.54-1.24.25-4.17.38-9.4.42-12.09,0-.49.1-.98.21-1.47.19-.93,1.61-.46,2.35.14Z"/>
  <path class="st34" d="M199.45,165.23c-1.92-.83-4-.85-6.07-1.87-2.26-1.11-4.63.34-5.17,2.84l-4.17,19.19,13.49-10.32c-.78,2.42-3.48,3.65-5.71,5.77l-9.28,8.82c-.86.28-1.36-1.82-1-3.12,2.39-8.68,5.12-16.8,6.01-25.67l8.42,2.28c1.49.4,2.56.9,3.5,2.08Z"/>
  <path class="st47" d="M68.02,150.01l.2,1.08-8.22.92c.25,2.84-1.95,2.8-2.71.1-1.65,1.08-3.22,1.7-4.7,1.86l-1.22-2.04c-1.35,2.13-2.23,2.68-2.63.13-2.72-.15-5.3-.52-7.76-1.09-2.06.97-5.59.82-7.99.02-1.71.91-5.19.92-7,0-2.45,1.04-6.21.78-9,0-1.51.95-5.02.87-7,0l-.24,1.34c-1.33-.7-3.08-1.08-5.25-1.16.16,1.77-.37,1.72-1.57-.13-.35,2.65-1.24,2.52-1.93-.03-.02-.34.11-1.02,1.04-1.02l65.97.03Z"/>
  <path class="st17" d="M344,146c.86.33.83.68-.05,1.03.95,9.84,1.27,18.85-3.67,15.13-1.85-1.4-3.54-15.64,1.81-14.52.71.15,1.27-.79.9-1.63-.93-.34-.93-.69,0-1.05l1.01.03c.87.29.86.63,0,1.02Z"/>
  <path class="st16" d="M364.76,149.17c.73.64.17.77-.82.75-.3,7.5,2.18,15.56-1.93,22.92-.61-.21-1.68-.72-2.18-1.06,1.44-5.08.61-10.16.95-15.92.15-2.64,1.5-5.16-.94-6.82.46-.98,1.53-1.32,3.19-1.02l1.73,1.15Z"/>
  <path class="st113" d="M147.34,335.72l5.41,15.36c.44.98.22,1.27-.82.94-1.01.32-1.74-.34-2.17-1.97-.24-2.75-.67-4.78-2.26-8.72-2.13.77-.91,2.49-1.01,3.68-.51,6.16-.43,11.45-.28,17.51.08,3.15-1.3,6.44.55,9.34-1.12-.74-2.59-2.01-3.63-2.53.73-.08.95-.7.77-.88-.28-.27-1.91-1.55-1.79-1.95.99-3.24.65-7.81,1.03-11.37.66-6.11,4.78-13.32.79-20.19.22-.42-.38-1.51-.63-1.91-.35-.57.39-1.96,1.69-2,.15,3.01.41,5.34,1.52,7.59,1.13-1.48.45-2.33.83-2.89Z"/>
  <path class="st120" d="M374,149.97c2.55.87,2.52,1.28-.14,1.97l-.77-.03c-.47-.83-1.52-1.69-3.77-.56l1.17,8.41c.61,4.35-1.98,16.06.94,19.41-2.12-.17-3.12-2.15-4.31-2.85.7-.79,2.13-2.83,1.68-3.96-1.57-3.9-.32-7.27-.42-10.83l-.33-11.53c-.99-.8-.67-1.16.94-1.09l5.01,1.06Z"/>
  <path class="st116" d="M133.52,409.12c-.3,4.78-.65,10.25-3.54,14.33-.19.26-.67.31-1.24.3-1.09-.05-2.08.36-3.9-.14,3.22-1.94,3.11-9.27,1.05-13.46.26-.47.97-.86,2.14-1.15-.84-.18-.82-.5-.02-.94,1.75,0,3.2-.4,4.83-.63l4.26.9c-.99,1.28-2.59.64-3.58.79Z"/>
  <path class="st110" d="M230.86,220.02c1.57.89-1.58,6.68-2.86,2.99-1-.48-1.4-1.58-1.2-3.3-.44-.37-.28-.94-1.39-.72-1.33.27-.7,1.34-.87,1.68l-6.62,13.28c2.15-8.28,6.58-15.7,10.76-23.1l2.34-.89c2.76.03,3,2.17.74,6.42.2,1.34-.1,2.55-.91,3.65Z"/>
  <path class="st55" d="M222.05,54.97c.39.87.4,1.56.02,2.05-4.5-14.73-3.59-30.26.3-45.64.4-1.57.63-2.82,1.96-3.31-2.3,10.23-5.44,20.91-4.11,31.79l1.84,15.12Z"/>
  <path class="st54" d="M99.07,292.06c-1.96-.27-.83-2.26-1.23-3,.49-8.05.88-16.08,1.18-24.1.44-1.17.28-3.31,2.33-4.12-1.59,9.86-1.93,18.55-.27,28.14.75,4.32,1.67,8.55.41,13.14l-1.7-12.19c-.84.57-.85,1.44-.72,2.13Z"/>
  <path class="st40" d="M223.96,202.11c1.17-4.14,5.16-7.24,8.08-10.77-1.12-1.2-2.17-2.14-2.7-3.22s.65-2.66,1.68-3.77c-2.15-1.68-3.67-3.13-3.95-5.23,3.62,2.43,5.85,6.14,9.06,10.06l-12.16,12.93Z"/>
  <path class="st62" d="M297,145.02c1.58,1.5,4.17,1.17,6.26,1.1-2.18,1.49-4,4.92-2.03,7.48.47.62.72,1.38.76,1.78.04.35-1.62.77-1.83.29-.99-2.21-1.84-4.95-4.24-5.12-2-.14-3.18-2.95-2.75-5.76l3.82.23Z"/>
  <path class="st31" d="M167.26,201.15l-1.24-.13c-1.29-2.3.06-8.03,3.25-7.93.32-3.71,1.35-7.48,3.09-11.29.04-4.57,1.24-7.84,3.6-9.81l1.45.11c-2.48,9.91-5.18,20.02-10.15,29.05Z"/>
  <path class="st43" d="M283.82,318.95c.55.22.98.42.96.56-.22,1.7-2.5,12.01-3.08,12.27-.43.2-.93.25-1.45.26,0,3.35-.83,6.92-1.69,10.23-.36,1.39-1.19,2.28-2.63,2.67-.83,1.41-1.08,1.54-1.39-.14,3.83-8.46,5.99-17.64,7.77-26.77l1.52.91Z"/>
  <path class="st68" d="M164.17,374.02c-.76-.75-1.88-1.18-2.67-2.54l-7.64-12.46c-1.33-.54-1.29-2.61-.9-4-1.85.99-2.43-1.88-1.03-2.99l.82-.94,8.68,17.51c.96,1.94,2.64,3.37,2.74,5.43Z"/>
  <path class="st88" d="M132,150c3.4.36,6.75.71,10.04,1.05l-2.02,2.95c-1.74-2.76-5.14-1.73-7.97-1.91-3.03-.77-6.25-.95-9.68-.55-.72,2.42-2.64,1.76-3.37-.55-6.77.96-14.37.47-21,0-.4.99-3.15,1.06-4,0-.87-.28-.86-.62,0-1h38Z"/>
  <path class="st124" d="M94,150v1c-1.8,1.1-5.92.82-8,0-2.83.59-5.91.8-9.25.6l.71.58c-2.26.61-2.69,2.12-2.72,4.8l-.13,14.37c1.98.41,1.29,2.65.21,3.68l-1.84,17.11c-1.98,2.04-2.88.59-2.72-4.37-2.23.22-2.2-2.35-.06-2.73-1.14-2.1-1.6-4.44-1.37-7.04l.17-26.04c-1.52,2.56-2.91,3.06-4.01.03-1.55,1.7-2.21,1.7-2,.01-.08,2.66-.84,2.62-1.84.14-.52.87-.85.86-1.16-.13,1.34-2.15,5.37.19,8.02-2.01h25.98Z"/>
  <path class="st78" d="M268.4,130.74l-.38,1.26c-1.71,2.26-2.71,1.68-2.32-1.09-2.16-.37-5.23-3.1-3.26-5.18-2.8.73-5.57-2.5-4.17-5.12-2.57.77-2.68.06-2.24-2.23-1.51-.69-2.68-1.5-1.3-2.73-.63-.85-.48-1.19.6-1.11l13.06,16.19Z"/>
  <path class="st39" d="M158.76,125.07c.05-1.35-1.06-3.82-1.68-5.06-.1-4.44-.02-8.65-1.05-13.02.47-.54,1.59-1.05,1.76-.46,1.08,6.95,1.6,12.56.97,18.55Z"/>
  <path class="st87" d="M237.98,374.01c-2.66,4.88-10.26,12.46-14.83,15.5.09-.9.41-2.05.84-2.55-.76-1.79.2-2.67,1.96-2.52,1.08-3.51,2.47-4.65,4.16-3.4-.98-2.98,2.03-5.29,4.88-5-1.34-2.86.14-4.58,3-3.08v1.06Z"/>
  <path class="st87" d="M199.27,358.14l5.61-13.28c1.05-2.18,1.41-4.68,3.4-5.79-2.11,6.66-4.84,13.57-9.01,19.07Z"/>
  <path class="st26" d="M325.47,224.96l-1.32-.69c-.79-.41-.11-4.72-2.39-9.96-.97.04-2.06.53-2.81.77.36-1.18,1.6-1.58,2.91-2.42,1.97,3.84,5.13,7.61,3.6,12.29Z"/>
  <path class="st109" d="M169.44,110.76c-.45.54-.56.99-.44,1.26-.98,1.16-2.73-.67-1.96-2.03l-2.27-.21-4.59-7.79c-1.62-1.41-2.65-3.82-5.01-5-.32,2.24,1.63,3.49-.1,5.03l-2.21-6.01c5.7-.32,13.02,9.03,16.59,14.74Z"/>
  <path class="st121" d="M232.33,81.81l-.32,1.2-3.04-4.08c-3.81.64-5.03-7.76-4.11-10.85.22-.43.13-.76.15-1.08l.05-1.02,7.28,15.83Z"/>
  <path class="st10" d="M97.84,289.06c-.85-1.52.12-3.58.13-5.04-.93-5.79-.54-12.27.05-18.02.14-.41.77-.77,1.01-1.04l-.03,22.99c0,.69-.58,1.1-1.15,1.11Z"/>
  <path class="st26" d="M325.18,306l-2.97,8.26c-.62,1.72-.54,3.45-2.34,3.71.04-2.18.96-4.79,1.65-6.81l2.47-7.18c-.15.34-.26.98-.11,1.41.11.33.71.64,1.3.6Z"/>
  <path class="st94" d="M289.95,409.18c1.74.91,2.76,1.85,3.06,2.81.86-1.05,1.44-1.41,1.99.01-.77.74-2.02,1.4-2.49,2.08-.95,1.36.14,2.97,1.67,3.8-3.39,2.83-2.59,6.57.38,10.23-2.16,1.21-3.99.71-5.88.64-4.83,1.28-4.61-13.06-3.49-14.24.5-.53,1.44-.53,2.2-.53l-4.33-4.88c-.48,2.64-1.42,2.46-2.06-.12-2.32,2.02-5.79-.15-5.98-3.04-1.07-.75-1.23-1,.1-1.38l14.83,4.61Z"/>
  <path class="st49" d="M275.92,344.95c2.64.99,1.86,2.31-.81,1.96.48,3.14-.2,4.51-2.04,4.12-1.82,3.68-2.93,8.32-6.06,11.07l7.52-17.28,1.39.14Z"/>
  <path class="st80" d="M128,408.06c.02.23.08.63.02.94-2,.91-5.17.84-7.01-.02-4.65,1.35-10.85.73-16.02.1l-2.08-1.04,25.1.02Z"/>
  <path class="st126" d="M251.09,192.1c1.57-.12,2.84,1.58,3.8,5.1,2.73-.36,4.13,1.58,4.21,5.82.1,1.01-.38,1.05-1.45.1l-9.93-12.93c-.62-1.35-.21-1.41,1.23-.19,1.07-.91,1.78-.21,2.14,2.1Z"/>
  <path class="st3" d="M120.96,165.87c1.12-3.23,5.46-2.05,6.33,1.12.56-2.67,2-2.48,3.32-.24l3.35-.86-.99,2.17-4.94.87c-2.7-.74-5.26-.99-8.04-.98-.74-.16-1.08-.48-1-.95-.87-.29-.86-.63,0-1.01.14-2.67,1.05-2.61,1.95-.12Z"/>
  <path class="st81" d="M331.99,251.99c-.36,6.41-.7,12.74-1.01,19,.74,1.21.26,1.71-1.02.99.54-7.01-1.04-14.27.83-21.03.98-.17,1.19.47,1.2,1.04Z"/>
  <path class="st70" d="M307.07,412.32c-1.29.48-2.99.5-4.07,1.77-1.49,2.37-2.63,1.57-2-1.1-2.06.11-4.03-.45-6-.98-.59-.16-1.4-.04-1.99-.01-2.54-1.24-1.77-2.27.97-1.93,4.37.96,8.68,1.76,13.09,2.26Z"/>
  <path class="st85" d="M248.36,105.72c.57.96.42,1.44-.44,1.44.02,1.96-.82,1.92-1.32-.05-2.86-.35-4.52-4.27-4.91-7l-.68-3.1c-.51-.5-.5-.87.16-1.21l7.19,9.93Z"/>
  <path class="st8" d="M268.15,216.03c.49-.03.96-.01,1.35.17.33.16,2.28,5.54,2.64,6.64.11.34,0,.75-.15,1.17,1.62-.33,2.88,2.53,2.12,4l-1.56.13-6.99-13c-.13-1.4.4-1.46,1.58-.17.53-.39.87-.04,1.01,1.05Z"/>
  <path class="st97" d="M252.41,212.81l-.4,1.19c-3.25,1.58-5.75-3.13-4.02-5.92-1.24-2.49-3.78-4.3-3.88-7.53,3.52,3.48,5.73,8.02,8.31,12.26Z"/>
  <path class="st43" d="M119,167c.5.13.89.5,1,.95l-19.01.05v-1.01c5.78-.95,12.42-.87,18.01,0Z"/>
  <path class="st101" d="M241.01,415.98c1.31.62,3,.76,4.03,2.07.29.42-.09.51-1.14.27-4.58-1.38-8.9-3.6-13.04-6.2-.52-.67-.12-.79,1.2-.35l8.95,4.22Z"/>
  <path class="st11" d="M329.89,412.71c1.92-.38,1.99.44.12,1.25-1.06,0-1.33.52-1.9,1.04-2.41,2.69-3.95,2.75-4.6.2l-6.17.02c-1.23,0-2.53-.02-4.05-.97,3.11-1.09,7.38-1.03,10.7-.42l5.89-1.13Z"/>
  <path class="st95" d="M260.99,423.12c1.91-2.15,4.62-1.55,8.12,1.8.84.39.79.74-.11,1.06-.25.46-.93.48-2.03.07-4.48.16-9.08-2.02-13.11-4.02l1.16-.04c1.48-3.17,4.44-1.5,5.97,1.13Z"/>
  <path class="st47" d="M332.04,270.99c-.3.87-.65.86-1.06,0l-.04-17.07c0-1.07.38-1.82,1.05-1.94l.05,19Z"/>
  <path class="st94" d="M166.34,417.46c.92-1.73,1.69-1.47,1.66.51.81-.57,1.51-.92,2,0l-13.01,3.99v-.98c-.91-.16-.96-.53-.18-1.09,1.09-2.53,4.12-3.09,6.03-.95.62-1.52,2.02-3.02,3.5-1.49Z"/>
  <path class="st91" d="M195.93,378.98c.29,2.68-3.12,7.02-6,5.98,1.77,2.51-1,4-2.97,1.96-1.41.67-1.48.26-.21-1.25,3.26-2.6,5.72-6.32,9.21-8.79.1.72.1,1.39-.04,2.1Z"/>
  <path class="st126" d="M255.34,114.55l-.6,1.11c-3,1.46-8.19-5.67-6.81-8.5l.44-1.44,6.97,8.83Z"/>
  <path class="st47" d="M97.96,284.02c-.53-.08-1.09-.9-1.07-2l.35-16.05.77.02-.05,18.02Z"/>
  <path class="st8" d="M172,396.95c1.88-.21,1.92.6.09,1.22-.42,2.16-2.26,3.52-4.17,1.77.37,3.14-1.63,3.09-4.08,2.02-.27,2.86-1.95,2.82-3.81,1.07-1.75-.27-1.81-.64-.13-1.26,3.84-1.84,7.8-4.25,12.1-4.83Z"/>
  <path class="st56" d="M327,162v.99s-18.01,0-18.01,0c.06-.45.55-.99,1.01-.99,5.41-1.09,11.8-.84,17-.01Z"/>
  <path class="st58" d="M186.75,385.67l.21,1.25c1.71,2.33.21,3.75-2.28,2.37.5,2.09-.86,3.9-4.1,5.43,1.42,6.94,2.13,13.8-2.72,19.35.04.93-.91,1.57-2.86,1.91-1.11,1.36-4.47,1.72-6.1.96l-1.16-.66c2.61-5.39,3.55-10.82,2.8-16.29l1.55-1.81c-.1-.29-.2-.95-.09-1.22l6.12-4.13c2.31-2.85,5.84-4.93,8.63-7.16Z"/>
  <path class="st79" d="M407,226h-3.06c-.83-.18-.85-.52-.12-1.04.64-1.61,2.52-2.36,5.62-2.24l-1.11-9.15,1.82-1.59,1.23-.03,1.74,12.33c-1.71,1.63-3.98,1.73-6.12,1.72Z"/>
  <path class="st63" d="M225.05,65.99l-.05,1.02c-2.62-2.77-2.91-6.32-2.94-9.99l-.02-2.05c1.62,3.39,3.16,7.36,3,11.02Z"/>
  <path class="st126" d="M182.97,203.96c-.45.81-1.31,1.43-1.98,2.03-.76.5-.87.09-.33-1.21,2.31-2.92,3.91-6.82,7.33-8.85-.71,3.24-3.48,5.27-5.02,8.04Z"/>
  <path class="st94" d="M269,425.97c.55-2.44,4.01-.63,5.54.72-.35-2.25.91-2.16,3.78.27.75.54.64.88-.3,1.02l.02.98c-3.77-.4-7.65-1.44-11.06-2.92l2.03-.07Z"/>
  <path class="st25" d="M212.47,223.13l-1.39-.12c-.15-2.13,0-7.24,2.92-6.9.25-1.22,2.2-2.63,3.27-3.12-1.22,3.58-3.43,6.77-4.8,10.14Z"/>
  <path class="st67" d="M277.02,370.01c-1.85,2.85-5.2,3.76-7.85,5.28-1.84.38-1.53,0-.12-1.2,2.11-.9,3.86-2.76,5.36-4.31-.66-1.56,1.93-2.65,2.59-.74l.02.97Z"/>
  <path class="st95" d="M264,210.13c2.74-2.15,3.59,2.65,3.14,4.85l-1.58.17c-1.32-2.46-4.87-6.21-5.75-8.89-.58-1.79-.16-1.55,1.15-.24,1.6-1.37,2.81,2.06,3.05,4.12Z"/>
  <path class="st90" d="M400.96,358c.51,1.28.38,3.68-1.07,3.9-.25,4.5-1.54,6.54-3.87,6.11l-.38-1.26,5.14-9.95c1.01.26,1.07.66.18,1.2Z"/>
  <path class="st69" d="M238,176.05c1.08.87,1.75,2.63,1.97,3.97-2.74-2.19-5.96-4.62-7.07-8.07l5.1,4.1Z"/>
  <path class="st90" d="M267.18,400.61c1.42,1.14,2.69,2.26,3.8,3.38.88,5.69,1.23,11.52,1.07,17.49,1.76,1.29,4.15,3.19,2.48,5.21-1.85-.14-3.64-.79-5.54-.72l.11-1.06c-4.29-1.03-4.83-4.21-5.45-8.06-.74-4.63-.09-9.6.53-14.17-1.96-.88-3.11-2.11-3.46-3.68-2.48,1.36-3.19.42-1.74-1.99-.58-.76-.8-1.05.24-1.36,2.52,1.56,5.23,3.67,7.97,4.96Z"/>
  <path class="st27" d="M195.97,38.03c-.28.67-1.45,1.47-2,1.97.08-.23.07-.75-.51-1.21,1.63-2.96,3.26-5.56,5.3-8.21l-2.8,7.45Z"/>
  <path class="st95" d="M180.98,205.99c-.48.96-.78,1.95-.81,3.03.69,2.46-1.58,4.88-4.16,3.98-.59.39-.65-.02-.2-1.22.75-2.29,3.33-5.09,4.84-7.01.38.48.44.99.33,1.21Z"/>
  <path class="st22" d="M343,144.95c-.02.27-.11.8,0,1.05l-5.83.21c-1.56-.2-3.02.28-4.89-.92,2.75-.64,5.67-1.04,8.77-1.2.5-.32,1.68.34,1.95.86Z"/>
  <path class="st102" d="M197.68,374.93c1.56-3.02,3.79-5.87,6.39-8.22-1.57,3.08-2.63,6.83-6.39,8.22Z"/>
  <path class="st75" d="M330.05,277.03c1,1.81,1.67,4.37-.06,6.03-1.48-2.22-1.26-5.58-.61-8.08,1.09.79.67,1.63.67,2.05Z"/>
  <path class="st119" d="M183,412.99c.31-1.12.96-.89,1.13.34-2.5.92-5.06,2.47-8.16,2.61l-.98.04c.87-.67,1.83-1.51,2.86-1.91-.19-3,4.26-4.28,5.14-1.08Z"/>
  <path class="st93" d="M275.12,404.57l-.1,1.38c-1.43,2.59-4.65.81-4.04-1.96-1.57-.76-3.36-1.34-3.8-3.38,2.56,1.2,5.37,3.17,7.94,3.97Z"/>
  <path class="st126" d="M257.03,344.01c.19,2.8-2.06,5.76-4.04,7.97l-.07-1.02c-3.4-1.36-.18-5.15,2.21-6.07-1.21-2.71-.6-3.36,1.83-1.95l.07,1.07Z"/>
  <path class="st69" d="M412.08,350.65l-4.68-1.55c.31,2.29-.77,2.54-2.41.9l-.09-.95c.17-.43-.11-1.75.68-1.96.68-.18,6.27,1.37,6.5,3.56Z"/>
  <path class="st112" d="M404.99,350c2.01.58,1.37,3.27-.41,3.84-.77,1.78-1.62,3.14-2.54,4.1-.26.89-.62.9-1.08.06.08-.31.06-.7-.18-1.2,1.12-2.17,2.19-6.13,4.12-7.75.12.23.18.66.09.95Z"/>
  <path class="st47" d="M154.01,404.94c.02,1.9-1.37,2.27-4.19,1.1.84,2.76-1.36,3.3-2.82.93l-.94-1.83,8-2.07c2.36.1,2.12,1.03-.04,1.86Z"/>
  <path class="st97" d="M259.22,395.65l-.24,1.36c-1.95,1.71-3.51.49-3.99-1.82l-2.03-2.19c-.47-.68-.67-1.01.21-1.35,1.79,1.58,4.06,2.76,6.05,4Z"/>
  <path class="st58" d="M189.99,409.98c.54-.52.9-.48,1.19.24-2.16,1.51-4.68,2.24-7.04,3.11l-1.13-.34c-.83-.3-.86-.66-.08-1.09,2.88-3.61,5.24-4.25,7.07-1.92Z"/>
  <path class="st101" d="M202.32,404.18c-1.73,2.07-4.85,2.92-7.21,4.04l-1.11-.23c-1.49-1.45-.78-2.11,1.14-1.11,2.33-1.13,4.52-2.75,7.18-2.7Z"/>
  <path class="st22" d="M329.93,283.97c.89,1.6-.61,3.72-.71,5.16-1.46-.5-1.29-1.75-1.39-2.62-.19-1.64.4-2.83,2.1-2.54Z"/>
  <path class="st9" d="M245,185.98c-2.25-1.37-4.6-3.27-5.03-5.97.45-.04.8.02,1.12.09,3.19-1.61,4.87,3.93,3.91,5.88Z"/>
  <path class="st104" d="M334.94,411.8l.27,2.31-5.2-.14-.12-1.25c1.71-.33,3.4-.51,5.06-.91Z"/>
  <path class="st111" d="M142.04,151.05h-8.12c-1.07,0-1.81-.38-1.92-1.05l9.07-.05c.78,0,1.2.77.97,1.1Z"/>
  <path class="st24" d="M97.37,152.2c-.67.2-3.21.67-3.25,1.85l-.49,12.93c-1.11-.06-2.88.09-3.21.42-.3.3.26,1.08.58,1.57l-4.99,1.08c-2.6.44-2.91-.25-1-2.03.26-.05.59-.09.87-.05l2.18-2.23c-4.68-5.03-6.81-13.03,2.33-13.56,1.9-.87,5.07-.81,6.97.04Z"/>
  <path class="st8" d="M175,415.98l.98-.04c-1.32,1.96-3.76,2.05-5.97,2.04h-2c-1.21-1.26-.75-1.81.89-1.04l6.1-.96Z"/>
  <path class="st47" d="M323.99,413.84l-10.7.42c1.01-.22.79-1.05.73-1.18l8.04-.12c1.1-.02,1.82.36,1.93.88Z"/>
  <path class="st20" d="M225.13,5.31c.28-.55-.37-1.29-.73-1.13-1.07,1.24-2.51,1.47-3.39,1.95.7-1.88,2.23-2.77,4.59-4.03.83.93.51,2.29-.47,3.21Z"/>
  <path class="st94" d="M159.9,401.78l.13,1.26c-.25.86-.53.82-.84-.07-.39,3.3-2.97,4.77-5.17,1.97l.04-1.86,5.85-1.3Z"/>
  <path class="st119" d="M178.12,392.83c-1.64,2.03-3.43,3.75-6.12,4.13,1.07-2.3,3.54-3.64,6.12-4.13Z"/>
  <path class="st91" d="M253.17,391.66l-.21,1.35c-1.59-1.72-4.34-2.84-4.55-5.56l4.76,4.21Z"/>
  <path class="st61" d="M217.95,210.97c.82-2.41,1.69-4.93,4.28-5.92-1.14,2.11-1.9,4.72-4.28,5.92Z"/>
  <path class="st72" d="M260.33,380.13c-1.56,1.37-3.54,2.72-6.27,2.88.3-1.69,1.4-2.28,1.93-3.13.77,1.6,2.93.62,4.34.25Z"/>
  <path class="st119" d="M261.63,370.85c1.35-2.16,2.03-4.72,4.22-6.37-.14,2.66-1.59,5.38-4.22,6.37Z"/>
  <path class="st10" d="M351.02,145.98c-1.37,1.23-3.26,1.01-5.02,1.03l-2.05.03.05-1.03c1.86-.35,3.87-.66,6.04-.93.36-.26,1.24.32.99.91Z"/>
  <path class="st91" d="M250.07,420.89c-2.24-.32-4.26-2-6.16-2.57l1.14-.27c1.99.12,4.74.54,5.03,2.84Z"/>
  <path class="st119" d="M269.17,375.3c-1.45.84-3.09,2.63-5.09,2.93.94-1.98,3.02-3.3,4.97-4.14l.12,1.2Z"/>
  <path class="st56" d="M341.05,144.1c-2.39,1.5-5.32.96-8.77,1.2,1.03-.24.81-1.07.72-1.31l8.06.11Z"/>
  <path class="st77" d="M328.08,229.96l-1.33,1.12c-2.41-.06-1.84-3.25-.93-5.15,2.3.5,1.87,2.49,2.26,4.03Z"/>
  <path class="st55" d="M220.97,158.07c-1.74-1.04-3.25-3.09-4.25-5.02,2.25.77,4.14,2.62,4.25,5.02Z"/>
  <path class="st97" d="M252.98,351.99c-.03,2.13-1.14,4.19-3.05,5.27l1.07-4.71c-.58-2.43-.31-2.69,1.92-1.58l.07,1.02Z"/>
  <path class="st85" d="M248.94,190l-1.23.19c-1.05-1.37-2.86-1.97-2.72-4.21.18-.88.49-.87.91-.01,2.44-1.78,4.81,1.95,3.04,4.03Z"/>
  <path class="st9" d="M241.17,95.8l-.16,1.21c-1.83-1.36-2.56-3.2-3.06-5.29,2.19.45,2.41,2.96,3.22,4.07Z"/>
  <path class="st47" d="M293.98,410.07l-.97,1.93c-1.15-.62-2.09-.88-4.23-1.25.65-.66.98-1.13,1.17-1.56l4.03.89Z"/>
  <path class="st120" d="M293.34,161.91l-1.29.06c-1.19-1.35-2.05-2.78-1.7-4.71,1.27,1.5,2.37,2.47,2.99,4.65Z"/>
  <path class="st1" d="M225.13,399.85c-1.33,1.73-2.37,3.19-5.32,4.34,1.83,2.51,5.27,2.27,6.16,4.9-2.98-.7-5.64-2.65-8.01-4.64,2.77-1.94,4.47-3.84,7.17-4.6Z"/>
  <path class="st59" d="M86.02,170.04l-4.04,1.03c0-1.75,1.47-2.73,3.04-3.06l1,2.03Z"/>
  <path class="st87" d="M209.76,175.5c-.45,2.07-1.92,3.68-3.65,4.62-.16-.26-.11-.86-.31-1.43l3.96-3.19Z"/>
  <path class="st120" d="M350.04,145.07c-1.74,1.26-3.96,1.15-6.04.93v-1.02s6.04.09,6.04.09Z"/>
  <path class="st8" d="M176.02,213c2.62.25,2.46,1.13.04,1.99.47,2.27-.42,2.95-2.06,1,.12-.22.05-.74-.36-1.25.51-.83,1.88-2.02,2.19-2.96l.2,1.22Z"/>
  <path class="st52" d="M133.01,426l-6.02-.04c1.41-1.53,4.62-1.53,6.02.04Z"/>
  <path class="st113" d="M308.01,144.03c-1.4,1.53-4.62,1.53-6,.05l6-.05Z"/>
  <path class="st24" d="M363.02,148.03c-.63,1.04-1.97,1.19-3.19,1.02-.2-.14-.55-.35-.53-.61.04-.49.46-1.17.7-1.41,1.08.04,2.14.41,3.03,1Z"/>
  <path class="st91" d="M194,408l1.11.23c-1.1.52-2.99,1.34-3.94,2l-1.19-.24c-1.35-1.5-.73-2.08,1.06-1.04.07-3.01,1.16-3.37,2.95-.94Z"/>
  <path class="st24" d="M368.99,148.91l-.94,1.09-4.11-.08c.82.13.91-.48.82-.75,1.27-1.32,2.75-.58,4.23-.26Z"/>
  <path class="st47" d="M378,151.02c-.86,1.28-2.73.98-4.13.92l.14-1.97,4,1.05Z"/>
  <path class="st37" d="M260.95,206.02l-1.15.24c-.3-.92-1.53-2.33-2.16-3.14l1.45-.1c.9-.3,2.61,1.77,1.86,3Z"/>
  <path class="st120" d="M132.97,168.07c-.65,1.43-3.41,1.29-4.94.87,1.12-1.33,3.29-1.12,4.94-.87Z"/>
  <path class="st117" d="M308.07,184.13l-.82.05c-.7-.93-1.13-2.07-1.29-3.23.49.16,1.46.26,1.79.83.37.65.27,1.78.33,2.35Z"/>
  <path class="st17" d="M123.2,200.97c-.15,1.42-.86,2.59-2.28,3l.25-2.3c.08-.72,1.34-.91,2.04-.7Z"/>
  <path class="st79" d="M232.06,411.76l-1.2.35c-.94-.59-2.77-.46-3.05-2.23,1.46-.1,3.15,1.35,4.25,1.87Z"/>
  <path class="st2" d="M331,247.99c-1.54-1.01-1.54-3.98-.16-4.97l.16,4.97Z"/>
  <path class="st15" d="M331.06,274.12c-.94-.36-1.15-1.35-1.09-2.14.48-.04,1.02-.53,1.02-.99h1.06c0,1.25-.59,2.16-.99,3.13Z"/>
  <path class="st113" d="M75.81,387.05c-.43-1.67-1.79-3.67.06-5.06l-.06,5.06Z"/>
  <path class="st31" d="M383.93,384.96l-1-.12c.86-.81,1.5-2.71,3.08-3.04-.56.88-.13,3.01-2.08,3.16Z"/>
  <path class="st20" d="M214.07,15.42c-.05,2.07-.14,3.05-2.07,1.59l-.09-2.09,2.02-2.05c-.07.91-.05,1.69.15,2.55Z"/>
  <path class="st37" d="M30.86,171.93c.97-.25,2.16-.52,2.86.07,2.48,2.11,3.51,27.64,3.37,32.5.05.19.38.68.97,1.48.54.13.96.27.98.45.53,6.94.41,14.74-.11,21.66.24.48.56,1.13.96,1.97.77.1,1.89.29,2,.86.53,2.62.84,11.21-1.95,12-.45.84-.79,1.54-1,2.09l.02,26.02c.16.61.5,1.28,1.02,2.02,2.94-.67,2.41,12.39,1.97,13.5l-2,1.37c-1.02.99-1.01,2.04.03,3.13,3-.02,2.91,6.33,0,6.86-1.07.9-1.07,1.95,0,3.14.77.09,1.94.32,2,.87.4,3.51.39,13.06,0,16.6l-2,1.4c-1.03,1.51-1.37,4.54-1.02,9.08.18.65.52,1.32,1.02,2.02,3.01-.35,2.78,4.38,0,4.89-1.57,2.17-1.36,4.19.01,6.1.78.09,1.94.33,2,.88.22,1.96.52,18.87.05,19.73-.42.77-1.2,1.17-2,1.43.96,2.72.96,7.57-2.1,7.92-1.42.56-1.57-7.44-1.54-7.05.63,7.72,1.01,22.57-.37,30.01-.14.74-.95,1.04-1.82,1.1,1.34,1.84-.56,5.62-2.06,6.95-.4.56-.74.59-1.13,0,2.79-8.7,3.23-17.24,3.23-27.16l-.09-179.66c0-7.47.3-14.07-2.73-20.57l-5.46-6.46c.22-.89.58-.91,1.07-.12,1.35-1.65,2.62-.68,3.84,2.92Z"/>
  <path class="st73" d="M36.12,424.96c-1.29.87-4.58.78-6.06-.04-.47-.03-.98-.08-1.42-.3-.71-.35-1.72-4.39-2-5.52-.64-2.63-1.82-8.16.41-9.46l-1.37-.27c-2.57,2.25-4.48,2.83-5.74,1.73.3,2.92-2.97,2.8-3.59.02-.8,1.77-1.51,1.49-1.44-.48l11.9-3.5,5.32-4.16c1.23-2.15,1.72-4.57,2.06-6.95l2.15-1.08c.15,3.65-.49,7.31-1.93,10.99,1.74,5.93,2.3,12.27,1.7,19.02Z"/>
  <path class="st20" d="M10.01,150.99c1.22.3,2.26.7,3.12,1.2,1.43,1.17.66,9.86-.21,11.14-.21.3-.66.44-1.18.53-.21.5-.78.88-1.71,1.13l-1.12.27c-2.56-.56-5.26-.98-7.8-.48l-.1-7.79c1.79-.7,2.35.81,1.7,4.52l.38,1.35c3.74-2.28,5.31-5.12,4.72-8.53-2.38-.19-3.47-1.25-3.29-3.18l5.49-.18Z"/>
  <path class="st58" d="M22.06,166.29c1.12-2.45,2.73-1.91,4.84,1.61.97.25,1.01.63.13,1.12-.24-.09-.77-.06-1.07.12-5.45-2.32-11.32-2.61-17.05-3.86l1.12-.27c5.58-2.46,9.59-2.03,12.03,1.29Z"/>
  <path class="st115" d="M32.13,402.98c-1.26,2.2-2.91,3.45-5.32,4.16,1.07-1.77,2.45-3.23,4.19-4.16h1.13Z"/>
  <path class="st31" d="M379.67,390.58c.85-.02,1.63.25,1.64.91.11,10.09.17,20.39-.54,30.33,2.26-2.14,3.67-2.42,4.23-.82l3.52-1.2c.47-1.9,1.27-1.79,1.48.17.88-.41,1.55-.41,2,0l-12.13,3.96c-1.2-.34-2.5-.35-3.89-.03-.87.51-2.17-.06-2.9.01l1.85-5.03-.09-19.93c-.02-4,2.18-7.03,4.82-8.38Z"/>
  <path class="st12" d="M367.24,427.02l-6.27,1.14c-.94-1.3-1.98-1.43-4.33-1.42,2.69-1.31,2.33-9.63,1.65-15.32l1.56-2.9c.24-.45-1.09-1.61-1.94-2.17,1.52-.49,2.33-.63,3.08-1.16,2.54,3.47,1.14,12.69-.4,19.74l6.64,2.09Z"/>
  <path class="st33" d="M400.37,414.82c-.49,1.19-.7,1.39-1.33.19-1.26-1.69,1.31-8.99,2.54-10.88.17-.26.76-.25,1.48-.16.02-3.61.94-8.15,1.8-11.76.17-.73,1.04-.93,1.93-.86-.74-1.81.04-2.04,1.2-.37,0,.96.17,2.3-.32,3.65l-7.3,20.17Z"/>
  <path class="st69" d="M407.99,390.99c-1.74-1.3-.93-5.3.95-5.86-.46-3.44.21-5.47,2-6.08.16-1.71.82-2.94,2.04-4.11.11,1.65-.15,3.32-.83,5.2l-4.16,10.85Z"/>
  <path class="st8" d="M396.98,418.01l1.01.12c-1.45.88-3.96,1.84-6,1.85h-2c-1.25-2.8,1.71-3.81,3.95-1.92.89-2.94,2.05-2.9,3.04-.05Z"/>
  <path class="st87" d="M412.98,374.94c-.12-2.42.31-5.08,2-6.94.16,2.38-.24,5.26-2,6.94Z"/>
  <path class="st46" d="M414.98,367.99c-.15-2.29.05-4.76,2.12-6.06-.42,2.13-.61,4.41-2.12,6.06Z"/>
  <path class="st47" d="M379.87,423.94l-3.88,1.04v-1.07s1.59-.94,1.59-.94c1.09-.64,2.21-.35,2.28.97Z"/>
  <path class="st70" d="M346.99,430.01c-1.31,1.68-3.98.9-5.94.93l-.09-.96c1.36-1.05,4.28-.83,6.02.02Z"/>
  <path class="st90" d="M398,418.13l-1.01-.12c-2.17-1.88-.4-3.46,2.02-2.02-.46-.26-.41-.6.04-.98l1.33-.19-.58,2.42c-.19.79-1.32.61-1.78.89Z"/>
  <path class="st70" d="M307.35,429.74c-2.08-.15-3.9-.64-5.46-1.48-.94-4.8-.99-9.42-.16-13.88l5.68-.21c.7-.63,3.43-.37,3.45,1.36.03,4.07-2.55,9.29.75,13.98l-4.26.23Z"/>
  <path class="st56" d="M303,414.09l4.41.09c-.93.84-2.6.99-4.54,1.07l.83,12.75,3.64,1.74c-2.26.12-4.66.41-6.89-.02-4.99-1.16-.2-7.84-3.06-15.5,2.19.21,3.13-.44,3.6-1.24l2,1.1Z"/>
  <path class="st24" d="M328.11,415c-3.08,2.79-3.52,11.21-.85,14.57-.86.62-1.89.46-2.84.2-.7-.22-2.09-.81-2.22-1.93l-1.06-8.88c-.26-2.18.68-3.4,2.38-3.76l4.6-.2Z"/>
  <path class="st123" d="M7.93,413.08c2.91-1.46,3.05,1.62.59,3.03,1.88,3.58,2.34,6.54,1.35,8.9-2.13.83-5.87.79-8.06-.06-1.3-2.95-1.44-7.9-.12-11.19,1.51-1.79,4.75-.31,6.24-.68Z"/>
  <path class="st64" d="M20.06,424.96c-1.89.38-3.91.72-6.05,1.02H2.01c.04-.34-.03-.68-.19-1.04l8.06.06c.42-3.44.25-6.99-.5-10.65l1.68-2.34c1.28.4,2.98-.08,3.86-1.38l1.44.48c1.48,1.47,2.15,3.79,2.01,6.96,1.56,2.58,2.13,4.88,1.7,6.89Z"/>
  <path class="st21" d="M11.05,412.01c.62,4.1,1.2,8.31.94,12.75-.5.36-1.75.24-2.12.24-2.54-5.94-5.14-10.36-1.48-10.92.39-.06,1.07-1.04-.45-1.01.84-.21,1.72-1.49,3.12-1.06Z"/>
  <path class="st125" d="M2.94,151.03c4.17.93,4.1,11.06.15,11.84-2.18-.48.02-4.09-2.08-5.87v-6s1.93.03,1.93.03Z"/>
  <path class="st55" d="M228.97,78.94l-.27,7.83c-.27,5.75.94,13.55-.7,19.18-1.42,4.88-.46,9.21-.36,14.13.2,9.71-1.93,19.62.23,29.02,1.06,4.62.47,9.07-1.14,13.89-1.4-.87-2.11-1.9-2.7-3.14l-.68-30.38c-.22-9.78-.6-19.24.27-28.94-.64-9.09-.83-18.49-.38-27.42.1-2.05-.39-4.14,1.63-5.03l4.11,10.85Z"/>
  <path class="st20" d="M214.81,44.18l-1.57-.78c-2.86-5.94-2.81-11.51-.54-18.07-1.38-2.34-2.36-4.77-1.73-7.26l1.03-1.06,2.07-1.59c1.05,4.61,1.98,10.15,1.46,15.31-.28,2.76.9,4.67.91,7.13,0,2.03-2.19,4.09-1.64,6.31Z"/>
  <path class="st92" d="M105.23,237.22c.7-.64,1.54-.25,1.78.27.46,1-1.31,2.44-1.53,2.36-.64-.22-.81-2.12-.25-2.63Z"/>
  <path class="st49" d="M282.76,364.26l-2.55-2.02c-2.59-9.98-2.58-20.05.03-30.19l3.57-13.09,1.18-8.95c2.38,2.58,1.17,10.02-.77,15.99-1.48,4.55.46,9.53.7,13.95.42,7.86-.83,16.46,4.03,19.53-2.82,1.36-4.57,3.1-6.19,4.8Z"/>
  <path class="st43" d="M287.18,302.04l-.19-28.54c.19-.39.55-.55.83-.54l.19,28.54c-.19.39-.55.55-.83.54Z"/>
  <path class="st76" d="M239.11,370.97l-1.12,1.98c-1.02.92-2.41,1.86-3,3.08-1.47.48-2.03.19-2.85-.73-1.44-1.62-1.84-5.92-2-8.13.45-20.16.73-40.35.57-60.75-.04-4.49-.71-8.84-1.39-13.24.67-4.21,1.14-8.18-.21-11.82,1.16-19.15,1.26-38.27.3-57.36,1.35-1.32,1.83-2.65,1.46-3.98-3.4-4.62,2.11-7.43.17-10.07.7-2.37,2.25-4.61,5.4-6.08,1.23,11.86.65,23.15.65,35.14l.02,53.99c0,3.26-.22,5.77-.17,8.97l.55,34.57c.17,10.95.23,21.49.27,32.47,0,1.05.77,1.74,1.35,1.96Z"/>
  <path class="st101" d="M252.01,214c0,1.06.56,2.03,1.03,2.99,1.16,2.5,1.13,4.69-.09,6.57.46,37.73.6,75.34.44,112.83.43,2.92,1.36,5.01,2.8,6.29l-1.06,2.22-2.21,6.07c-.24.67-1.29,1.27-1.92,1.58-.81.69-1.51,1.84-3.02,1.99.11-5.91-.46-10.69-2.6-15.34.79-7.04,1.07-13.55-.4-20.39l.15-77.28c1.62-9.39.64-18.31.48-27.58-.04-2.45.66-4.78,2.37-5.88,1.08,2.17,2.27,4.27,4.02,5.92Z"/>
  <path class="st8" d="M278.16,145.04l3.43,3.15c1.58,1.45-1.32,3.74-1.55,5.01,1.12,6.42.43,13.56.39,20.15l-.28,48.54c-.02,3.73,1.82,6.44.25,10.57-2.26,5.94,2.64,13.61,2.13,14.6s-1.42,1.05-1.64.05c-1.37-6.31-3.95-11.68-6.04-17.15.2-2.06-.4-4-1.8-5.84,1.41-6.02,1.6-12.77.56-20.24l.39-55.29c.32-3.32,1.14-6.69,4.16-3.56Z"/>
  <path class="st78" d="M275.06,140.94c.76,1.67.52,3.53-.72,5.58l-1.01,8.26c.55,21.92.63,43.74.22,65.48,1.57,1.9.21,6.18-1.57,3.76-1.35-2.55-3.66-5.05-3.83-7.98-1.92-4.56-2.5-9.47-1.76-14.71-2.05-21.63-1.19-43.34-.04-65.01.78-2.17,1.89-3.05,3.76-1.31l4.96,5.94Z"/>
  <path class="st37" d="M265.7,130.91l2.32,1.09c.63.92,1.38,2.15,2.08,2.99-1.34.47-2.32,2.11-2.16,3.95.39,4.53-.56,8.63-.57,13.04l-.09,38.04c-.01,5.73,1.1,11,.97,16.9l-.1,9.11-1.01-1.05-3.14-4.85c-1.2-3.32-1.82-5.97-1.32-9.64-2.19-21.2-2.33-42.46-.4-63.76.04-6.88,1.18-8.82,3.42-5.82Z"/>
  <path class="st95" d="M278.16,145.04c-2.73-1.04-2.08,2.52-2.16,10.92l-.31,35.79c-.07,8.15-.34,16.08.5,24.31.35,3.42.07,5.61-2.12,8.11.82,1.45,2.69,4.15.77,5.8l-.75-1.95-2.12-4c1.25.19,1.33-.9.96-1.32-.34-.38-1.51-1.78-1.45-2.28.62-5.59-.14-11.49.06-17.21.51-14.89.77-29.21-.1-44.2-.38-6.6.07-12.88,3.62-18.06,1.08,1.29,1.95,3.04,3.1,4.1Z"/>
  <path class="st27" d="M193.09,246.98l-.48,57.53-.54,29.64c-.07,3.88-1.7,7.63-.82,11.9,1.01,4.88-2.11,9.24-2.34,13.96-.16,3.16,2.03,7.19-1.7,9.58l1.91.3c-.7,1.56-1.97,2.43-3.55,4.06-1.09-.74-2.01-1.79-2.6-2.95-.32-.88.19-1.94,1.51-3.19,1.05-2.18,1.24-4.62.55-7.32.34-18.88,1.01-37.74,2.02-56.58l1.06-1.8.05-15.1,2.6-7.93.4-31.86c.21-.4,1.92-.43,1.94-.27Z"/>
  <path class="st25" d="M203.96,244.97c-1.99,7.38-3.84,14.71-4.23,23.15-2.49-6.14,1.99-16.1.96-19.95-.85-3.18-3.11-5.72-.1-8.49-2.76-2.89-1.6-6.58-1.66-9.65l2.08-7.05.05-11.25c.21-8.8.69-17.63,1.43-26.48l1.7-3.4c.51-.44,1.03-1.48,1.91-1.73.9,1.48-.24,4.7.49,6.3,1.52,3.29-1.2,5.47-1.19,7.88l.08,30.12c0,.56.98,1.08,1.13,1.32.22.36-.91,1.11-1.01,1.72l-2.68,15.55c-.19,1.11.45,1.97,1.04,1.96Z"/>
  <path class="st61" d="M214,216.12c-.53,2.54-1.98,4.53-2.92,6.9s-1.38,5.03-3.09,7.03c.52-1.94.17-4.58,1.34-6.7,2.44-4.45-.35-9.01-.08-13.29.44-6.8,1.5-12.93,1.45-19.59l-.08-9.29c-.01-1.24,2.01-3.08.67-5.02.68-1,2.97-1.52,3.67-2.29,2.01,3.91-.79,7.35-1.6,11.25l1.02,11.3c.67,7.4,1.24,11.9-.38,19.69Z"/>
  <path class="st87" d="M201.06,211.74c-3.08-7.48,1.34-18.83-.26-26.9l3.39-2.98c1.27,3.38-1.87,6.66-1.94,10.21-.16,8.2,3.13,18.03-1.19,19.67Z"/>
  <path class="st87" d="M198.94,230.03c-.05-2.52.4-5.16,2.08-7.05-.01,2.54.35,5.51-2.08,7.05Z"/>
  <path class="st114" d="M129.75,355.21c-2.27-1.39-2.13-8.15-1.7-13.46l.81-9.83.34-95.88c.03-7.08.2-13.86,1.58-20.4s1.52-12.52,1.03-18.68c1.23.19,2.27,1.25,2.26,2.99l-.09,14.11-1.98,3.88-.12,21.16c-.05,8.05,2.9,16.41-1.07,24.85l.39,50.89c.08,10.88-.72,21.38.32,32.35.27,2.83-.49,6.07-1.76,8.03Z"/>
  <path class="st91" d="M182.96,371.01l-1.02-2c2.46-1.8,1.31-5.75,1.49-12.93s-1.37-13.97-.25-20.97c.56-3.5.61-6.6.85-10.23.34-5.35,1.64-10.33.89-15.96-.38-2.86.85-5.84,3.17-6.78l-.4,34.44-.52,20.47c-.07,2.81-1.37,3.69.02,6.44,1.24,2.45-1.97,6.51-4.22,7.53Z"/>
  <path class="st31" d="M158.95,215.96c-1.45,2.96-2.19,5.84-5.6,8.95l.53-11.27c.13-2.75,1.68-4.56,1.59-7.68-.51-17.77-.88-35,.54-52.63-.88-1.7-2.26-3.65-2.33-5.49l3.98-13.93c.86-.19,1.41-.84,1.67-2.01,3.04,3.42-.34,8.49.12,11.8.62,4.43-.07,7.26-.1,11.37l-.39,55.88c-.01,1.57-2.65,4.15-.02,5.01Z"/>
  <path class="st78" d="M170.03,118.01c1.62.29,1.47,2.32-.46,2.06l1.09,1.32c.25,22.45-.24,44.45-1.52,66.63.28,1.26.32,2.95.13,5.07-.93,2.67-1.64,5.37-3.25,7.93-1.35,2.15-2.03,4.71-3.13,6.94-2.38-1.86,2.73-10.47,1.36-17.7-.48-2.54.05-3.29.08-5.68l.31-31.86.53-19.9c-2.14-5.88-1.89-13.3-1.68-19.6.03-.73,1.45-1.11,2.45-1.22,2.43-1.32,3.97,3.96,4.1,6.01Z"/>
  <path class="st72" d="M167.03,109.99c1.16,1.81,1.18,2.54-1.1,2.01-2.07,3.83-.55,12.72-.77,20.82-4.04-1.83-2.57-12.14-3.39-19.04-.48-4.02.32-8.06-1.61-11.79,2.69,2.35,5.55,4.52,6.87,8Z"/>
  <path class="st119" d="M172.38,354.03c-1.19-.46-1.8-1.5-2.38-2.97l-4.07-10.33c.08-4.14.72-8.2,1.62-12.53.38-32.77,1.07-65.53,2.07-98.27.53-3.8,1.74-7.51,3.42-10.93.26-1.01.37-2.08.95-3.01l2.06-1,1.6.24c-.65,27.73-1.25,55.61-1.82,83.65.46,17.86-.28,35.66-2.21,53.39l-1.26,1.77Z"/>
  <path class="st95" d="M165.93,340.73c-1.63-4.14-3.13-8.37-4.22-12.76.93-.93,1.05-2.43.35-4.5l1.02-6.97-.13-67.86,1.84-13.04c2.69-5.06,4.19-11.87,8.24-16.6-2.05,8.08-1.46,20.28-2.08,30.1l-.65,10.22.1,42.5c.01,5.46-.15,10.01-.62,15.39-.51,5.77.75,11.9-1.81,17.97-.59,1.4,1.01,4.92-2.05,5.54Z"/>
  <path class="st126" d="M181.15,213.1c.58,1.1.26,2.43-.95,3.99-.43,46.99-1.54,93.5-3.33,139.53-.17,1.09-.83,2.04-1.96,2.43-1.49-1.48-1.89-3.23-2.53-5.02-2.59-7.2,1.38-14.56,1.47-22.08l.37-32.43.71-44.57c.06-4.08.25-7.29.38-11.47l.62-20.53c.08-2.81,1.64-5.67.14-7.96-.18-.47-.03-1.5-.04-1.99,1.24-1.49,2.29-3.27,4.16-3.98,1.14.98.95,2.83.98,4.08Z"/>
  <path class="st8" d="M161.71,327.97c-.47-1.89-2-4-1.9-6.85l-.89-2.74c-.24-.75,1.5-1.89,2.02-2.56l-.16-11.05-.09-47.86c-.02-8.18.35-14.24,4.11-21.31,2.15,2.72.14,5.57.14,8.45l.15,72.01c0,4.61-2.44,9.01-.24,14.01-2.64-.16-2.09-1.86-3.14-2.1Z"/>
  <path class="st58" d="M176.87,356.62c-3.33-3.46-.45-8.4-.27-12.86l.8-20.32c1.64-8.48-.18-16.83.07-25.38l.96-33.49c.41-14.2.52-27.93,0-42.04-.13-3.59.69-7.08,2.72-9.42.21.53,1.17,1.25,1.53,1.86.32.53-1.43,1.78-1.44,2.46l-.49,47.28-.29,17.25c-.11,6.58-1.05,12.57-1.15,19.06l-.53,35.68c-1.5,6.8-.9,13.49-.28,20.01-.62.12-1.18.04-1.63-.08Z"/>
  <path class="st108" d="M226.78,283.5l2.01.86c.64,30.25,1.17,60.95,1.59,92.1.99,1.9.9,3.43-.27,4.58-1.87,1.95-3.61,4.65-6.12,5.93-.86-.63-1.39-1.52-1.52-2.3-.22-1.37,1.92-1.92,2.71-.58,2.75-3.15-1.65-6.21-1.65-8.41v-36.09c0-3.78.1-6.9-2.81-9.92l4.32-23.64c1.3-7.13,1.35-13.79.85-21.16-.28-.68-.08-1.69.88-1.37Z"/>
  <path class="st27" d="M192.94,115.88c-2.57-3.07-5.21-10.33-5.12-11.39.06-.78,1.1-1.78,1.99-2.62-1.73-4.27-.08-9.23-.02-13.51.04-2.66-.89-4.51.58-7.26,1.69-3.15-.98-10.32-1.12-18.66-.02-.97-2.3-2.11-2.41-3.08-.32-2.85,4.38-11.52,6.09-16.4,2.33,6.7-2.22,11.06,1.71,14.47-.84,6.65-1.13,13.72.43,20.55l-.17,30.99c-.01,2.39-1.23,4.52.49,6.79-1.48.4-1.9.11-2.45.13Z"/>
  <path class="st47" d="M63.01,152.01l.92.17c-.52,8.9-.53,17.88-.04,26.95l1.15,3.38v224.68c-.58,5.77.44,11.01,3.06,15.74,2.21-.63,2.52.16,1,1.87l-3.08.18c-.56.69-1.51.73-1.94-.02-4.3-.89-4.94-2.23-6.12-6.37l-.33-42.28,1.6-1.2c-.13-68.33-.66-136.84-1.61-205.52l1.08-16.32,2.46-1.13,1.84-.14Z"/>
  <path class="st39" d="M72.99,192.15l.08,182.63c0,3.3,1.56,6.04.99,9.21-.46,2.53.66,4.35,1.03,6.11l-1.3,2.32c-.31,9.05-.1,18.04.61,26.95,1.36,2.05,2.02,3.87,1.96,5.46h-4.07c-.65-.1-1.31-.27-1.83-.69-2.89-2.31-2.07-26.52-1.59-31.26-.29-37.06-.2-73.98.26-110.76-2.13-.39-1.97-1.28.26-1.37-.78-30.45-.99-61.11-.64-91.97l1.5-1.01c.45,1.7.96,3.62,2.72,4.37Z"/>
  <path class="st120" d="M72.3,424.84l-3.21-.04c-.3-.51-.97-1.26-1-1.87-2.24-4.25-3.25-9.35-3.05-15.3.66-69.5.99-104.25.99-104.25l-.95-17.78c.19-2.75,1.25-5.25,4.07-3.48.85,1.59.92,3.56.91,5.86l-.18,44.94c0,2.2-.1,4.06-.09,6.27l.23,58.76-.92,13.93,3.22,12.96Z"/>
  <path class="st124" d="M75.09,390.09c.38,1.83,1.05,4.36,1.88,6-1.06,8.76-3.74,21.46.79,26.23.91.96,2.7,1.49,3,2.6l-4.39-.09c-3.48-2.81-4.51-7.12-4.5-11.81l.06-22.68c.84-.31,2.05-.34,3.16-.25Z"/>
  <path class="st117" d="M116.85,424.9l-5.15-.19c3.59-3.89.73-8.41,2.45-13.63,8.4-.46,7.2,10.31,2.69,13.82Z"/>
  <path class="st41" d="M118.53,410.23c2.53,2.84,5,7.37,3.35,11.4l-2.5.92c-.52.19-.4,1.86-.13,2.3l-2.39.06,1.82-8.21c.6-2.66-2.37-5-4.51-5.61l-1.92-.54c1.01-1.52,4.53-1.17,6.29-.32Z"/>
  <path class="st39" d="M50.98,424.99c-.39-1.84.62-1.85,3.03-.01-.08-2.41,1.02-2.5,3.3-.27-.27-1.89.63-1.8,2.7.26-.45-2.06,2.46-.78,4.06-.01l1.94.02c.06.41-.35.98-1.04.98l-18.96.02c-.16-4.01,3.04-4.13,4.97-.99Z"/>
  <path class="st95" d="M50.98,424.99c-1.68,0-3.86-.54-4.97.99h-17c-.87-.28-.86-.61,0-.99.24-.89.59-.9,1.05-.07l6.06.04c-.18-3.14,3.81-2.69,5.14-.14l1.43-1.91c1.26,1.46,2.47,1.85,3.63,1.17-2.12-1.21-4.48-7.31-1.38-8.23l-1.48-3.33c.04-10.44-.26-20.84-.68-31.28-.05-1.2.59-1.95,1.79-2.34,1.27-.95,2.01-.06,2.2,2.66.65,12.83,1.78,25.7,3.41,38.6,1.04,2.02,1.31,3.63.8,4.83Z"/>
  <path class="st127" d="M121,408.99c.87.3.85.64-.01,1.01l-2.47.23c-2.04.19-4.22-.26-6.29.32-2.35-.66-4.84-.25-7.26-1.46l16.02-.1Z"/>
  <path class="st115" d="M20.06,424.96c.14-2.81,1.52-2.77,2.42-.19.35-3.44,2.72-1.85,4.55.12.43-2.64,1.33-2.49,1.98.09v1s-15,0-15,0c1.52-1.56,4.05-.87,6.05-1.02Z"/>
  <path class="st91" d="M255.99,222.97l1.32,7.94c.51,33.93.66,67.88.44,101.87l1.42,2.12-2.23,8.05c-.51.55-1.57,1.24-1.83,1.95.5-1.11-.78-1.9-1.25-.87-.31.68-.35,1.72-2.19,2.04,1.72-3.3.46-5.33.43-8.22l-.28-31.85c-.03-3.77-.6-7.24-.61-11.1l-.19-71.79c.68-1.92,2.87-4.12,2.01-6.12l2.95,5.99Z"/>
  <path class="st97" d="M262.3,238.9l-.98,1.95c.34,27.3.51,54.16.51,80.58l1.44,2.6c-.71,3.84-2.17,7.62-4.1,10.86-1.33-.26-1.32-.22-2.02,1.62-.8.57-1.78.66-2.64.28.71-1.95,1.36-3.43,1.36-5.82l.03-55.91-.66-48.55c-.02-1.47-.17-2.58.74-3.55,2.55,5.19,4.66,10.48,6.31,15.93Z"/>
  <path class="st126" d="M262.3,238.9c2.4,7.93,4.23,15.96,5.09,24.73.05.56,1.14,1.54.98,1.9-.24.54-2.53.71-2.94,1.21-2.61,3.28-1.76,8.74.3,12.42l-1.66,6.85-.08,16.72c1.19-.28,2.18-.51,2.62-.31s.3,2.01.18,2.61l-3.52,19.01c-1.33.05-1.95.29-3.32,1.22l-.4-28.85c-.26-18.77,1.33-37.35-.02-56.38-.07-1.05,2.31-1.42,2.76-1.13Z"/>
  <path class="st69" d="M246.6,107.11c.99.61,1.56,1.64,1.73,3.12-.92,24.12-1.24,48.18-.96,72.19,1.75,1.95,1.47,4.24-1.46,3.55h-.91c.07-2.42-2.74-3.82-3.91-5.86l-.39-44.2c3.74-13.1-1.7-24.29.98-35.8,1.9.97,5.1,4.84,4.91,7Z"/>
  <path class="st67" d="M282.76,364.26c-1.03,1.07-2.15,2.18-3.65,2.7-2.01,1.56-4.06.92-2.74-1.3-.82-6.24-1.25-12.5-1.27-18.75l.81-1.96c1.76-4.24,3.13-8.51,4.32-12.9,1.41.82.57,2.7.3,4.36-1.55,9.65-.09,18.77,2.21,27.86Z"/>
  <path class="st95" d="M279.11,366.96c-.6.45-1.06,1.77-2.11,2.08l-2.59.74c-.79-.34-1.62-1.37-.98-1.73.41-.23,2.11-1.3,2.07-1.74l-1.38-13.35c-.12-1.19-.35-1.87-1.05-1.94l2.04-4.12c1.52,3.22,1.47,6.98,1.07,11.12l1.63,4.44c-.45,1.4-.81,2.54-.34,3.4.26.47.95.84,1.64,1.1Z"/>
  <path class="st26" d="M326.75,231.08c.44,1.87,1.71,5.69,1.37,7.74-2.5,4.07-1.78,6.96-1.75,11.17.09,10.38-.89,20.51-.22,31.03.07,1.08-.6,1.93-1.12,2.07-2.16-9.62-.54-19.9-.65-30.02l-.21-19.29c-.03-3.07-.64-5.86,1.65-7.84-.25,1.98.55,3.53.93,5.15Z"/>
  <path class="st102" d="M195.14,406.89c-.46.22-.84.7-1.14,1.11-1.03,0-2.07.39-2.95.94-2.12-.35-3.03-2.48-2.74-6.41,2.35-5.97,2.17-11.56,1.62-17.57,1.76-2.26,3.65-4.52,6-5.98,2.53,1.33-.24,4.61.08,6.08,1.63,7.62,1.99,14.88-.87,21.83Z"/>
  <path class="st40" d="M234.99,376.03c-1.1,2.27-3.3,3.36-4.88,5-1.65-2.6-2.01-5.07-2.06-8.26-.3-19.89.59-39.37-.77-59.05l-.5-30.23c.44,1.01,1.99.58,2.12.01.06-.29-.65-.89-.9-1.01l-.97-.48-.04-10.02.98-2.05c.74-15.02.78-30.01.12-44.95-1.34-.05-1.39-1.62-.07-1.99,1.66.06,2.69-1.37,2.86-2.99.64.05,1.55-.08,2.4.56-3.41,2.36-2.38,4.45-2.39,7.32l-.11,27.13c-.02,4.83-.27,9.07,0,14.01.41,7.41-.34,14.8,1.87,18.85-2.19,3.59-1.17,6.37-.57,10.02,1.3,7.95.21,16.37.29,24.5l.33,33.5c.07,6.59-2.33,14.03,2.3,20.11Z"/>
  <path class="st110" d="M228.01,223.01l.07,1.99c.41,1.58.48,3.22.53,4.86.17,5.7.84,29.54-.36,33.4-.09.28-.45.48-.88.66-2.96-1.91,0-5.48-.32-7.73-1.38-9.87-1.4-18.47-.41-28.04.26-2.55-1.43-5.85.17-8.44,1.08.91,1.15,1.83,1.2,3.3Z"/>
  <path class="st110" d="M226.98,272l.38-8.08.71-38.92c1.82,3.42.96,7.66,1.02,11.89l.31,23.85c.03,2.2-.83,3.88-.71,6s.89,4.53-1.71,5.25Z"/>
  <path class="st107" d="M392.11,155.92c.8.68,2.8,1,3.88,1.01l-.09,19.06c-.03,5.09-.06,9.73,1.23,14.36l1.31.24c-.21,7.58-.6,15.1-1.19,22.57l-2.21-1.03-4.02-9.18c.59-1.64.37-3.5-.67-5.6.65-.34,1.21-.94,1.28-1.69.68-7.88,1.69-32.18.33-36.24-.97-.05-1.49-.86-1.56-2.43-2.65-1.38,1.73-1.83,1.71-1.08Z"/>
  <path class="st53" d="M403.93,162.01c-1.08,4.51-.46,9.06.73,13.51-1.78,16.21-2.5,32.58-2.18,49.12l-1.36,1.44c-1.36.05-2.37-.69-2.82-2.47l-1.17-4.62c.32-12.6,1.22-25.38,2.7-38.34l-.91-20.6c.13-.56-.45-.84-.6-1.12-.69-1.33,3.82-1.02,5.01-.11s.5,2.31.59,3.2Z"/>
  <path class="st9" d="M397.14,218.99l-2.1-6.86c.76-.26,1.29-.68,1.48-1.13.32-.76-.08-1.79-1.03-2.49,1.67-3.61.29-7.57.79-11.53l.84-6.63c3.87-6.57-1.26-17.62,1.8-30.3,1.75,3.26.8,9.75,2.15,17.9.59,3.61-1.13,7.15-1.11,10.21.03,6.02.4,11.68-.85,17.87v10.96c0,.81-.31,1.84-.61,2.15-.27.28-1.02.04-1.36-.14Z"/>
  <path class="st60" d="M387.09,154.81c-.42,0-1.27.52-1.11.68l1.31,1.35c1.12,10.32-.36,34.44-.51,34.6-.42.43-1.08.12-1.94.5l-2.63-3.63c-.49-2.01-.68-3.94-.58-5.77l.37-24.49c-.66-1.57-.67-2.95-.03-4.14,1.77-.33,3.55.49,5.12.89Z"/>
  <path class="st87" d="M405.88,180.01c-.01,7.19.01,14.44.97,21.46-2.62,7.17-2.04,14.26-1.13,21.69l-1.9,1.79c.01.28.22.68.12,1.03l-2.8.09c.41-10.7-1.11-21.66.51-32.65.36-2.45,1.39-3.8,1.13-6.82-.3-3.46,2.48-8.53.76-12.22-2.06-4.42-1.68-9.33.4-12.38l1.95,18Z"/>
  <path class="st44" d="M391.02,202.95l-2.74-5.66c1.28-.01,2.77-.91,2.75-2.23l-.63-38.06c.43.08,2.95.5,3.33,1.36.71,7.24.23,14.28-.61,21.69l.45,8.12c-3.27,11.02,1.45,15.7-2.54,14.79Z"/>
  <path class="st10" d="M342.52,428.73c1.56.04,3.75-.29,4.46,1.29l-6.02-.02c-1.19.15-.97-.94-.29-.93.53,0,1.61-.07,1.85-.33Z"/>
  <path class="st67" d="M381.97,153.92c1,.8,2.03,2.18,2.02,4.03l-.13,16.98c-.03,3.94-1.43,7.54-.02,11.46.19.54-.07,1.37-.37,1.61-.25.2-.7.24-1.25.32-1.9-1-3.2-3.71-4.66-4.88.71-.7,1.26-.76,2.65-.38-1.56-4.73-.41-8.6-.4-13.16l.02-13.8c0-.71-2.12-2.27-1.54-2.45l2.23-.66c.51-.15,1.26.35,1.46.94Z"/>
  <path class="st92" d="M110.68,165.87c-1.31.88-3.88.97-5.21-.09-.99-.86-3.42-1.5-4.04-3-1.3-3.16.01-6.33-.05-9.55,4.84-.28,9.06-.47,13.6.02-1.81,3.67-.4,7.22-1.15,10.39-.61,1.23-2.5,1.74-3.14,2.23Z"/>
  <path class="st26" d="M132.05,152.1l-2.35-.14c.33,1.04-.58,1.22-2.73.54-2.89-.1-3.8.13-2.74.68.76,1.49.43,3.35-.97,5.59.75,4.57-.02,6.93-2.3,7.09l-1.95.12c-.95.84-3.35.78-4.3-.12,4.05-1.24-.2-5.46,4.38-12.55-1.63-.17-2.52-.9-3.22-1.2.84-.4,1.88-.78,3.14-1.11l11.08-.06c1.11,0,1.85.41,1.97,1.16Z"/>
  <path class="st57" d="M119,151c-.44,1.25-1.96,1.4-3.14,1.11-5.78-.12-12-.71-17.77,0-.9-.25-.91-.62-.08-1.11h21Z"/>
  <path class="st22" d="M105.47,165.77c1.76.17,3.46.09,5.21.09h4.02s4.3.12,4.3.12v1.01s-18,0-18,0c.98-1.23,2.95-1.37,4.47-1.23Z"/>
  <path class="st92" d="M94,151h4s.08,1.11.08,1.11l-.72.09c-2.26.28-4.66.06-6.97-.04-2.64.99-4.1.97-4.37-.06-.88-.3-.87-.67-.02-1.1h8Z"/>
  <path class="st91" d="M254.99,395.2c1.53.06,3,.68,3.99,1.82l1.74,1.99c.59,7.43,1.14,14.9,1.66,22.4l-1.39,1.72-5.97-1.13c2-1.24-.81-2.87-.87-4.05-.38-7.2.17-14.72-1.48-22.13-.15-.66,2.06-.99,2.33-.61Z"/>
  <path class="st87" d="M410.94,379.05c-.2,2.14-1.25,4.1-2,6.08l-1.33-1.14s-.77-7.38-2.32-22.14c-3.67.36-2.52-5.91-.7-8.01-.34-1.29.06-2.64.41-3.84.66-.35,1.7-1.14,2.41-.9.83,2.04-.24,4.24.11,6.84.22,1.6,2.19,3.71,1.6,5.97-.98,3.75.93,6.44,1.43,9.83.32,2.15-1.85,5.6.39,7.31Z"/>
  <path class="st112" d="M399,415.99l-2.02,2.02c-.87.02-2.25-.33-3.04.05-1.71.74-2.78.65-3.21-.25,0,0,.83-7.2,2.48-21.59l-2-11.2c1.17-4.13,2.08-8.2,2.71-12.23l2.1-4.77,3.87-6.11c2.39,14.09,2.89,28.47,1.48,43.15-2.17,3.78-2.96,7.43-2.37,10.94Z"/>
  <path class="st90" d="M393.95,418.06l-3.95,1.92-1.48-.17.71-6.05-.44-13.37c-.23-6.88.94-13.77-.28-20.44l5.41-7.16c.37,1.39,2.08,4.61,1.29,6.02-3.35,5.94-2.03,11.13-.04,17.21-.66,6.23-2.22,14.79-1.79,17.42l-1.02,3.02c-.18.54.65,1.29,1.59,1.61Z"/>
  <path class="st8" d="M384.93,390c-.48.78-.81,1.44-.98,2,.46,9.44.4,18.85-.19,28.21l-2.99,1.62h-1.39c-1.19,0-.03-2.18-.01-2.77l.3-28.47c.91-.9,1.44-3.31,3.33-3.46.98.58,1.91,1.62,1.94,2.88Z"/>
  <path class="st72" d="M384.93,390l.36,16.96c.11,5.02,1,9.55-.29,14.05-1.37.47-2.76.82-4.23.82,1.59-1.37,2.4-3.25,2.38-5.79l-.23-24.12c0-.81.3-1.63.61-1.86.3-.22,1.04-.19,1.4-.06Z"/>
  <path class="st59" d="M90.39,152.16c-2.68.53-4.19,2.13-4.5,4.43-.73,5.32,6.31,8.1,3.76,10.41-1.07.97-2.53,1.11-3.77.95-3.01-3.37-4.11-12.23-3.28-13.61.57-.94,2.15-1.54,3.42-2.24l4.37.06Z"/>
  <path class="st24" d="M86,151l.02,1.1c-2.88-.24-5.71-.04-8.56.08-2.11.09-4.39-.02-6.48-.52.03-.17.18-.48.52-.66h14.5Z"/>
  <path class="st71" d="M410.14,211.98l1.51,12.44c-2.89.97-5.33.62-7.84.53-.24-6.3-1.9-13.01-.08-19.66.86-3.12,2.61-6.2-.4-9.19,3.74-6.83.13-13.39,2.54-16.09l4.26,31.97Z"/>
  <path class="st38" d="M314.56,160.71l7.44.29c.22-1.69,2.78-.86,4.18-.09.18-.88.47-.86.86,0l-.04,1.09h-17c1-1.19,3.03-1.34,4.56-1.28Z"/>
  <path class="st31" d="M153.85,359.01c.39,5.26,1.83,10.64.09,15.77-.86-.09-1.45-1.36-2.02-1.72-1.5-.87-2.6-2.19-.81-3.09.97-2.43-.12-5.41-.33-7.84.67-2.16.84-4.55.49-7.16l1.66.04c.43,1.26.81,2.66.9,4Z"/>
  <path class="st94" d="M151.93,352.02l1.03,2.99c-2.43,1.76,1.31,5.74-2.15,7.12l-1.04-12.08c.7.4,1.87,1.11,2.17,1.97Z"/>
  <path class="st94" d="M151.12,369.97l.81,3.09c-.44-.29-1.51-.28-1.96-.54-.47-.27-1.4-1.27-.92-2,.38-.58,1.79-.5,2.07-.56Z"/>
  <path class="st8" d="M156.81,419.89l.19,1.09c-1.47.02-3.69-.37-5,.35-2.9.85-3.3-.69-1.2-4.62.93-3.58.6-7.14-.98-10.68,1.44-.48,2.65-1.01,4.19-1.1,1.84-.1,3.55-1.17,5.17-1.97,3.96,2.94,2.04,14.99-2.37,16.92Z"/>
  <path class="st94" d="M149.82,406.04c4.51-.17,4.51,10,1.52,14.2-.33.46-.16,1.2.67,1.1-2.11,1.15-4.42,1.01-6.63.18,2.53-4.55,2.15-10,.56-14.37.31-.06.76-.07,1.06-.17l2.82-.93Z"/>
  <path class="st82" d="M324.28,145.11c.83,1.09.73,2.51-.3,4.26l.22,7.61c2.55,1.03,3.21,2.34,1.98,3.93l-4.18.09c-1.32-1.38-3.46-1.52-6.05-1.29.85-8.07-2.19-12.9,3.43-14.6h4.9Z"/>
  <path class="st95" d="M281,408.99c1.8,1.11.87,3.05-.94,3.51,0,0,.52,4.03,1.57,12.1l1.96,2.16c2.62.09,2.6.64.44,2.11-1.94-.74-3.91-1.17-6.03-.89l.3-1.02c-6.94-1.68-6.09-13.98-5.32-19.75l2.04-1.27c2.01.97,4.14,1.7,5.98,3.04Z"/>
  <path class="st93" d="M288.69,428.76c-1.39-.05-3.27.65-4.65.12.04-.61-.4-1.44-.44-2.11-.53-.04-1.02-.14-1.35-.42-.73-.62-2.45-16.9.81-17.24,1.1.06,3.4.17,4.64,1.35,1.39,1.39,2.07,4.13,2.36,6.72-1.49-.8-2.3-1.43-3.84-1.45-.64,5.29-.09,9.34,2.47,13.03Z"/>
  <path class="st26" d="M353.91,409.12l.45,13.29c.08,2.25-1.04,4.16-2.54,5.38-.8.09-1.8.25-2.44.13-.46-.08-.56-9.86.34-17.44.42-1.1,2.96-1.3,4.19-1.37Z"/>
  <path class="st24" d="M327.04,160.91h-.86c-.32-1.44-2.73-1.49-3.92-1.96l-.29-8.93c-.08-2.32,1.04-3.8,2.31-4.91.88,0,2.25-.59,3.08-.31,3.67,1.21-1.13,5.52,1.1,15.63.09.39-1.11.74-1.43.48Z"/>
  <path class="st29" d="M133.52,409.12c3.87.35,2.42,10.28-2.57,14.73l-2.21-.1,1.92-6.87c.74-2.54-.28-7.25,2.87-7.76Z"/>
  <path class="st45" d="M128.01,409c-.21.95-1.23,1.17-2.14,1.15l-4.88-.15v-1.01s7.02.02,7.02.02Z"/>
  <path class="st13" d="M178.03,144.98l1.03,5.02-3.1,21.99c-1.03,7.32-4.27,14.17-6.69,21.09-1.83-1.28-.91-3.37-.13-5.07,1.35-21.56,1.67-43.65,1.49-65.38l-1.05-2.57.46-2.06c-1.13-1.53-.56-2.06,1.13-1.08,3.89,8.81,7.32,18.35,6.87,28.05Z"/>
  <path class="st60" d="M169,112.02l2.17,4.91-1.13,1.08c-2.33-1.66-1.46-5.19-4.1-6.01l1.1-2.01c.28.74,1.41,1.46,1.96,2.03Z"/>
  <path class="st60" d="M179.06,150c-1.55-1.18-1.11-3.29-1.03-5.02,1.3,1.16,1.26,3.36,1.03,5.02Z"/>
  <path class="st114" d="M129.7,151.96c.31.25,1.33.81,1.69,1.22.06.07-.42,7.28-.77,13.57-.99.26-2.29.42-3.32.24l-1.89-1.07,1.19-10.8-2.37-1.93c-.81.11-1.82.09-2.31-1.06l7.79-.17Z"/>
  <path class="st32" d="M57.3,152.11c.74.49.64.81-.25.96-3.32,13.07-2.69,27.72-1.74,41.37-.02.79-.49,1.25-1.3,1.45,1.91-.31,1.94,4.89-.06,5.11.94,10.45.92,21.52.02,31.99.88.28.87.62,0,1.01.37,21.01.72,42.01,1.04,62.99.49.02.96.08,1.33.3,1,.57.83,22.25,0,23.05-.34.33-.82.51-1.33.65-.9,7.8-.82,16.19,0,24,2.18-.25,2.05,3.72,0,4,.33,18.7.67,37.36,1.03,56l1.34.27c-.62,7.19.48,13.39,3.28,18.6l-.64,1.11-2.7-.26c-4.02-.41-4.79-5.12-5.27-8.47-.71-55.18-1.03-110.56-.95-166.14l-.89-3.19-1.33-.18c-1.04-31.43-.61-62.79,1.28-94.09l1.25-.7,5.92.18Z"/>
  <path class="st42" d="M60,152.02l1.16.13c-1.6,2.24-1.63,5.44-1.61,8.48l.19,25.76.1,140.47.15,44.23c0,1.61.25,3.11-.77,4.03-1.36.83-2.01.31-2.04-1.21-.78-34.81-.97-69.72-.59-104.74-.33-24.33-.81-48.2-1.37-72.36-.02-.96,0-1.47,1.29-1.67-.66-.17-1.19-.36-1.22-.61-1.68-13.18-.55-27.49.81-40.69.03-.28.43-.52.94-.75-.03-.25.19-.69.25-.96l2.71-.1Z"/>
  <path class="st67" d="M51.38,151.93c.15,3.89-1.17,7.75-1.17,12.1l-.03,82.86c1.35,4.36,1.2,10.8.81,15.47-.02.24-.47.44-1.03.63l-.95,4.33c-.35,39.34-.04,78.56.94,117.66,2.5-.13,2.43,5.55.15,6.04-.55.78-1.8,1.56-2.2,1.07-1.63-1.97-2.16-24.76-2.24-29.42l-.11-184.51,1.9-24.17-1.24-2.02c-.35,2.9-2.13,2.81-3.03.12-.64,2.6-1.53,2.49-2.16-.1-.88-.29-.86-.64,0-1.04,3.57,0,6.89.86,10.38.97Z"/>
  <path class="st106" d="M4.51,151.17c1.44.98,3.23.95,4.98.94.47,3.13.98,5.45-.3,7.53-1.52,2.47-3.11,3.89-6.1,3.23.76-4.23,1.5-9.59-.15-11.84l1.57.13Z"/>
  <path class="st34" d="M26.01,151c.87.29.86.63,0,1.01-.06,2.68-1.03,2.56-1.91.06-1.07,3.51-7.65,2.92-7.09-1.07h9Z"/>
  <path class="st60" d="M41,150.97v1.04c-.02,2.86-2.29,2.76-3.01.04-1.66,3.35-4.81,2.85-4.98-1.06l7.99-.02Z"/>
  <path class="st58" d="M33.01,150.99c1.1,1.56,3.29,1.09,4.98,1.06,1.61,1.98,2.1,9.51-.26,10.95,1.77.07,1.85.39.22,1.12-1.24,4.62-1.03,10.83.63,18.65.41,3.45.2,6.56-.61,9.32.6.08,1.06.16,1.07.29.3,3.68.26,9.23,0,12.94-.02.24-.43.45-.97.65-.4.14-1.21.18-1.51-.04-1.83-1.34,2.02-28.14-5.69-34.01-3.02-4.88-3.1-10.8-.23-17.74-1.49.09-2.22-.41-2.69-2.02-.89,2.54-1.29,2.5-1.94-.16v-1.01s7,0,7,0Z"/>
  <path class="st4" d="M17.01,151c1.81,1.7,4.74,1.14,7.09,1.07,1.56,1.76,1.59,4.54.08,8.34.23,2.85-.48,4.81-2.12,5.88-3.99-.59-7.95-1.45-12.03-1.29.19-.77.92-1.18,1.71-1.13,2.01-3.18,3.92-8.26,1.39-11.67-1.19.2-2.57-.04-3.12-1.2h7Z"/>
  <path class="st113" d="M65.01,151.99c1,2.14,1.45,4.64,1.35,7.5-1.39,7.82-1.08,15.18.92,22.11l1.41,3.41c-.23,31.97.01,63.88.72,95.75-.32.25-.48.96-.26,1.37-1.25.4-2.28,2.34-2.08,4.15,1.41,12.24,1.04,24.08.35,36.3-.48,8.61.43,16.76.42,25.43l-.05,44.99c0,6.35-1.79,12.36-.24,18.52l.55,11.41c-5.46-.99-4.96-8.39-4.96-15.74l-.03-149.14-.09-106.04h2Z"/>
  <path class="st120" d="M69.02,151.96c-.01,9.29-.05,18.79-.12,28.52l-1.17,1.11c.07.76-.09.74-.46,0-5.37-2.36-3.18-11.37-2.63-21.43.14-2.62-1.98-5.89.36-8.18l4.01-.03Z"/>
  <path class="st39" d="M70.21,185.05c-2.15,2.96-2.68-.9-2.48-3.45-1.47-8.19.93-15.91.19-25.67-.12-1.55.53-3.01,1.09-3.96.48,0,1.73-.04,1.89.47.1.31-.94,1.26-.93,1.69.13,10.66.67,20.77.23,30.92Z"/>
  <path class="st9" d="M254.73,115.66c.6.74.96,1.78,1.3,2.73l-2.43,1.86c.17,23.5-.12,47.06-.86,70.68l-1.65,1.17c-.48-.6-1.51-1.26-2.14-2.1l-3.04-4.03c1.84-.93-.6-2.47-.48-3.38.35-2.66-.15-7.44-.13-10.58l.13-26.61c.03-5.72.91-11.55.19-17.29-.46-3.61-.29-6.51.03-10.12l.97-10.88,1.32.05,6.81,8.5Z"/>
  <path class="st126" d="M265.7,130.91c-.83-.35-1.43.16-1.6.69-.15.47.99,2.33.76,2.8-1.16,2.47-.4,7.04-.73,9.49-.79,5.88-1.19,10.76-.96,16.64.44,11.28-1.06,22.57.4,33.97.5,3.88,2.54,7.81-.36,11.26.97,1.33,1.96,3.16.79,4.37l-3.05-4.12c-.18-1.18-.16-1.66.06-1.44-3.05-3.3-4.03-7.84-4.35-12.24.22-19.31.58-38.59,1.09-57.85-.19-6.69,1.37-9.61,4.69-8.76,1.01,1.65,3.64,2.69,3.26,5.18Z"/>
  <path class="st97" d="M262.44,125.73c-3.16,2.43-3.13,5.88-3.18,9.81l-.57,48.18c-.06,4.81-.44,8.51.66,13.12.43,1.79-.9,5.4,2,6.84.37.19.71,1.44.63,1.77s-.43.55-1.02.57l-1.86-3c-1.28-2.06-2.79-4.01-4.21-5.82-2.15-3.3-2.74-7.07-1.77-11.32-.25-19.1.42-38.32,2.02-57.64-2.08-3.29-1.69-10.25,3.14-7.63,1.51,1.62,3,3.21,4.17,5.12Z"/>
  <path class="st85" d="M256.03,118.39c1.38-.11,1.65,1.6,2.24,2.23-1.63.57-2.15,1.71-2.49,3.01-.3,1.13,1.5,3.58,1.31,4.66-1.38,7.92-1.59,15.54-1.67,23.62l-.34,34.06c-.04,3.9-2.04,7.47-.18,11.24-1.19-1.52-2.79-3.33-3.8-5.1l.67-57.04c.03-6.18-1.71-11.91.73-18.04.83.93,2.34,1.46,3.54,1.37Z"/>
  <path class="st74" d="M283.06,409.11l.54,17.66c-.83.37-2.47.53-3.31-.53-1.97-2.5,1.08-6.32-2.05-7.27-.25-2.39-.54-5.32.27-7.58.64-.61,2.5-1.34,2.5-2.4l2.06.12Z"/>
  <path class="st7" d="M127.29,166.99c-2.1-.38-4.17-1.26-6.33-1.12,1.48-2.79-2.06-7.47,3.27-12.68,1.59-.23,3.42-.4,4.57.19l-1.51,13.61Z"/>
  <path class="st97" d="M269.1,424.91c-2.94.28-5.44-1.29-8.12-1.8-.8-1.41-1.15-3.1-1.21-5.07l-.51-17.17c-.03-1.04.77-1.77,1.45-1.88,1.92.06,5.64,1.89,5.39,3.7-1.07,8.68-1.62,16.93,3,22.22Z"/>
  <path class="st95" d="M163.84,401.97c1.22-.53,2.24-.95,3.01.19.86,1.27-.78,16.07-4.01,16.79-1.96.57-3.86,1.25-6.03.95,1.75-5.37,2.93-11.15,2.37-16.92l.84.07c.94-1.15,2.94-.63,3.81-1.07Z"/>
  <path class="st19" d="M172.09,398.18c3.03,9.21-2.04,11.35-.37,15.69-1.18.6-2.82,1.72-2.82,3.07l-.89,1.03-1.66-.51-1.25-.81c1.66-5.19,2.05-10.16,1.18-14.94l1.64-1.76c1.12-.47,2.18-2.47,4.17-1.77Z"/>
  <path class="st119" d="M167.92,399.94c1.95,7.32-.88,10.95-1.58,17.51-.95,1.03-2.27,1.13-3.5,1.49-.15-2.15,1.83-3.92,1.96-6.24l.43-7.55c.05-.85.51-1.65.21-2.2-.24-.45-.98-.77-1.62-.99,1.17-1.21,2.71-1.45,4.08-2.02Z"/>
  <path class="st101" d="M191.05,408.94c-.41.26-.76.66-1.06,1.04l-7.07,1.92c-1.01-7.19-.08-15.54,1.76-22.61l2.28-2.37c.72-.74,2.33-1.14,2.97-1.96,3.74,1.35,2.81,10.98.34,17.77l.78,6.21Z"/>
  <path class="st91" d="M182.92,411.9c.09.34.11.74.08,1.09-1.73,0-3.52.45-5.14,1.08-1.31-.52-1.22-1.79-.76-2.41l1.64-2.21c1.63-5.3.63-10.56-.37-15.6l6.31-4.56c3.05,3.03-.74,8.42-.13,16.33.21,2.71.65,4.64-1.63,6.28Z"/>
  <path class="st13" d="M275.03,405.95l-.24,8.89c-.1,4.59.06,9.16,3.52,12.12l-3.78-.27c-.65-1.69-2.1-3.05-4.42-3.14l-.39-14.55c-.06-2.29-1-3.94,1.27-5.01l4.04,1.96Z"/>
  <path class="st9" d="M403.05,403.97l-4.02,11.04c-.1.27-.07.69-.04.98-2.95-1.1-1.42-5.99,1.15-11.17.29-14.56.6-28.74-.26-42.92.63-.99.78-2.77,1.07-3.9l1.08-.06c.58.27,1.05.56,1.1.91,2.17,14.5,2.27,30.84-.08,45.11Z"/>
  <path class="st69" d="M405.28,361.85c.82,6.21,1.26,12.53,1.34,18.97,1.18,3.38,1.23,6.89.16,10.53l-3.73,12.61c-2.12-2.26.2-5.31.22-7.93l.2-20.22c.06-6.05-3.21-11.8-1.44-17.87.45-1.55.34-3.45,2.54-4.1.43,1.6-1.85,1.18.7,8.01Z"/>
  <path class="st60" d="M46.2,151.99l1.3.42c-.83,8.67-1.49,17.36-1.96,26.05-.03,66.82.11,133.39.42,199.69l-1.39.75c-2.27,12.97,1.49,25.8.37,36.94-1.66,1.22-2.71.22-3.15-2.98-2.93-.49-2.99-7.14-.02-7.75-.69-5.29-.63-10.69.16-16.21-1.25-6.27-2.33-12.61-.89-18.94-.37-1.81-.71-3.78-1.01-5.91l-.05-22.05c-1.63-.96-1.54-5.08-.01-6.1v-4.89c-1.69-2.21-1.61-8.77,0-11.1v-18.87c-1.49-.18-1.47-2.73,0-3.14v-6.86c-1.49-.17-1.5-2.72-.02-3.13l.03-14.87c-.38-.04-.69-.12-.78-.3-.64-1.31-.75-27.85-.13-29.17.14-.29.47-.49.87-.66l-.06-12.87-.8-.35c.2-12.01.19-24.23-.06-36.66l1.11-2.06c-.49-.1-.96-.23-1.32-.5-.62-.46-.55-14.63-.29-15.4l2.03-1.37c-1.73-1.59-2-9.74.69-10.72-2.99-1.23-1.22-10.45,1.92-10.88l3.03-.12Z"/>
  <path class="st115" d="M37.92,371.97c.91.27.94.61.09,1.03-.03,5.28.37,10.72,1.21,16.31-.81,11.19-.36,22.5,2.75,33.18l-.72,2.33-5.14.14c-.87-.49-2.15-1.44-2.13-2.94l.15-12.09-1.78-3.67c.4-3.11,2.4-6.28,3.46-8.94-.25-.73-1.44-1.3-1.62-1.29l1.49-10.33.71-20.78,1.54,7.05Z"/>
  <path class="st34" d="M30.86,171.93l-3.84-2.92c.02-.35,0-.82-.13-1.12-.84-.48-2.26-1.33-2.69-2.09-.97-1.72.38-13.92,3.73-13.64l5.16-.14c-1.47,8.01-3.96,13.69-2.24,19.91Z"/>
  <path class="st66" d="M40.14,190.98c-.22,9.03-.34,18.01.48,27.47l-.73,11.59c-.78.27-1.6-.13-1.82-.68-.18-.45-.38-1.79-.11-2.32,1.46-2.79.04-5.27.05-8.12l.05-12.95-.1-13.88c-1.01-2.77.34-3.48,2.17-1.11Z"/>
  <path class="st37" d="M39.94,242.92l.04,30.13c-.38.11-1.13.11-1.42-.12-.36-.29-.62-1.02-.62-1.86v-26.14c0-.83.27-1.58.62-1.85.29-.23,1.01-.26,1.38-.16Z"/>
  <path class="st37" d="M39.97,319.91v11.1c-.37.11-1.12.12-1.41-.1-.32-.24-.63-1.04-.63-1.83v-7.19c0-.82.28-1.54.64-1.83.29-.23,1-.26,1.4-.15Z"/>
  <path class="st37" d="M41.03,369.97c-.56,3.22-.79,6.51-.69,9.87l-1.34.1c-1.6-.98-1.92-4.86-.99-6.94-.03-.28-.03-.73-.09-1.03,2.42-2.14,2.11-5.02,2.1-7.92,1.46,1.42,1.13,3.94,1.01,5.91Z"/>
  <path class="st37" d="M39.96,335.91v6.1c-2.05.27-2-1.17-2.09-2.51-.13-1.91-.08-3.63,2.09-3.58Z"/>
  <path class="st37" d="M39.95,287.91l.03,3.13c-.36.05-1.18.11-1.49-.1-.54-.35-.77-1.6-.45-2.43.21-.55,1.2-.81,1.92-.61Z"/>
  <path class="st37" d="M39.97,297.91v3.14c-.36.05-1.17.11-1.49-.09-.56-.36-.78-1.62-.45-2.43.22-.56,1.22-.82,1.94-.62Z"/>
  <path class="st18" d="M19.94,411.1c3.66-1.81,3.3,2.47,2.44,4.53,1.18,2.26,2.19,7.64.1,9.14l-2.42.19c-3.68-3.65-4.78-8.78-3.71-13.85l3.59-.02Z"/>
  <path class="st48" d="M27.05,409.64c-.93,3.24-1.05,6.69-.38,10.37,1.33,1.95,1.45,3.58.36,4.89l-4.55-.12c-.37-2.92-.13-6.51-1.93-9.13.5-.79,1.3-1.81.99-2.57-.4-1-.9-1.55-1.61-1.98,2.8-1.84,7.11-3.09,6.61-3.13.78.06.33,1.24.5,1.66Z"/>
  <path class="st1" d="M30.05,424.91l-1.05.07-1.98-.09-2.66-4.68c1.63-2.7.33-5.5-1.45-8.38l4.13-2.2c.64,1.63.58,4.96,1.11,7.2l1.9,8.08Z"/>
  <path class="st65" d="M11.73,163.87c.12-4.04-.91-8.18,1.39-11.67,1.29-.22,2.63-.33,3.7.25-1.44,5.73.04,11.71-5.09,11.43Z"/>
  <path class="st50" d="M26.01,152.01l1.94.16c-1.37,5.1-3.13,10.69-1.05,15.73-1.63.15-3.41-1.4-4.84-1.61-.85-5.24,1.4-9.09,2.04-14.22l1.91-.06Z"/>
  <path class="st79" d="M408.94,385.13c-.7,1.85-.96,3.9-.95,5.86l-1.2.37c-.45-.9-1.2-2.9-.55-3.91,1.88-2.89-.89-4.51-.92-6.5l-.03-19.1c.29.78,1.94,1.2,1.82,3.15-.43,7.01.1,13.77,1.84,20.13Z"/>
  <path class="st60" d="M169.13,188.02c-4.61-4.76-.6-13.1-.51-16.38l.68-23.26c.28-9.58-1.78-19.21.27-28.31.62-.08,1.32.03,1.63.28.5.41,1.01,1.49,1.01,2.62l-.18,35.02c-.03,6.37-1.38,12.1-.41,18.5.59,3.87-1.04,8.38-2.49,11.53Z"/>
  <path class="st94" d="M59.22,375.11l.28,39.45c.02,2.43-.03,6.01.88,8.13.84.69,3.48.9,3.69,2.27h-4.06s-3.69-6-3.69-6l-.29-13.97c-.36-18.69-.7-37.35-1.03-56v-4c-.86-7.84-.83-16.19,0-24v-24c-.32-21.03-.67-42.03-1.04-62.99v-1.01c.98-10.41.8-21.52-.03-31.99l.06-5.11c.5-2.59.85-3.11,2.51-.76-.26,1.92.31,5.13.33,7.62l.23,32.22.5,23.87c.08,3.93.64,7.16.62,11.2l-.26,57.72c-.01,2.32-.2,4.09-.19,6.46l.28,36.8c.01,1.72.32,3.06,1.21,4.08Z"/>
  <path class="st120" d="M70.21,185.05c-.03.81-.13,2,.06,2.73.32,1.23-1.09,4.01-.87,5.28,2.2,6.16-.03,11.8.23,17.92l.56,13.01c.22,5.05-.55,10.01-.35,14.76.3,7.14.62,13.9.35,21.3l-.77,20.7c-1,.41-1.31-.06-1.32-.78l-.14-21.03c-.07-9.85-.91-19.27-.72-29l.24-11.91-.19-36.44c.07-.25.36-.29.46,0,.21,1.49.85,3.02,2.48,3.45Z"/>
  <path class="st72" d="M50.09,391.03l1.34.63c-.38,9.34.02,18.62,1.21,27.85,1.23,2.08,1.69,3.9,1.36,5.47h-3.03c-1.73-3.07-1.73-6.74-2.37-10.56l-2.4-14.52-.46-14.78c-.07-2.22.46-4.43-1.18-6.21,1.05-5.98-.41-11.62-.38-17.93l.19-51.85c.02-5.07-.18-9.24-.18-14.35l.13-122.17,1.87-20.62c.95-.04,2.44-.16,2.78.75l-1.6,17.55c-.35,3.8-.66,5.37-.62,8.99l.39,37.73-.09,37.89c0,3.27-.03,5.68-.03,9.06l.08,112.88c0,3.57,1.84,6.48.78,10.31-.46,1.65.85,3.64,2.21,3.89Z"/>
  <path class="st8" d="M57.3,424.71l-3.3.27c-6.9-5.79-3.67-23.74-3.92-33.94l-.15-6.04c-.97-38.96-1.28-78.08-.94-117.34l.95-4.65.22-16.1c1.03.49,1.83,1.43,1.83,3.15l.06,92.86,1.24,13.06-.14,48.91c0,3.42,1.13,6.6.87,10.16s1.09,7.39,3.25,9.67Z"/>
  <path class="st37" d="M39,379.94l1.26.29c1.23,8.2,1.73,16.5,1.49,24.89l.02,7.75c1.15,3.86,2.32,7.2,3.52,10.03l1.01,1.18c-1.15,1.57-3.42.69-5.05.74-1.55-2.12-1.52-4.88-2.12-7.88l-2.38-11.91c.85-6.86,1.32-12.31.53-19.13-.36-3.14,1.06-6.49-.46-9.98-.41-.95.46-2.94,1.19-2.93.21,2.22,0,4.93.99,6.94Z"/>
  <path class="st94" d="M57.04,153.08c1.07,8.82-4.33,22.72-1.54,33.38.94,3.61,1.42,5.61,1.01,8.68l-2.51.76.26-36.66c.01-2.04.57-3.99.99-6.08.08-.41,1.73-.33,1.79-.08Z"/>
  <path class="st94" d="M55.01,296.99c-.39.05-.99-.34-.99-1.09l-.05-61.9c.37-.1,1.05.29,1.05,1.08v61.91Z"/>
  <path class="st94" d="M56.03,404.99c-.41.06-1.03-.35-1.03-1.09v-54.91c.39-.06.99.35.99,1.08l.03,54.91Z"/>
  <path class="st94" d="M53.96,232.99l-.02-31.99c.73.08,1.12.81,1.12,1.94v28.11c0,1.16-.4,1.87-1.1,1.94Z"/>
  <path class="st94" d="M55.01,344.99c-.67-.11-1.05-.86-1.05-1.94v-20.13c0-1.08.38-1.82,1.05-1.94v24Z"/>
  <path class="st8" d="M49.94,384.99c-2.33-3.43.43-10.27-1.96-17.16l.06-100.57c0-1.87,1.14-3.43,1.92-4.26l.35,111.45-.37,10.54Z"/>
  <path class="st37" d="M41.01,152.01l2.16.1-1.92,10.88c-.53,2.85-2.7,2.77-3.52.01-.7-3.6-1.35-7.56.26-10.95l3.02-.04Z"/>
  <path class="st37" d="M37.95,164.13l1.34.02c-.14,3.45.29,6.64,1.28,9.57l-.42,17.27c-.89-.08-1.76.22-2.17,1.11-.36-.63-1.28-1.77-1.08-2.96.77-4.77-.82-8.86-1.22-13.24-.27-2.92.74-11.79.85-11.86.3-.2,1.08-.01,1.43.09Z"/>
  <path class="st13" d="M41.76,405.12c-4.2-5.5,1.91-15.7-2.76-25.18,2.34-2.51-.33-7.39,2.02-9.97-.39,6.32.11,12.55,1.95,18.82l-1.22,16.33Z"/>
  <path class="st66" d="M41.25,162.99l-.69,10.72c-.7.2-2.18.34-2.21-.25l-.41-9.34-.22-1.12h3.52Z"/>
  <path class="st13" d="M44.93,415.85c-.27,2.7.09,5.61,1.38,8.23-.37.03-1.5.13-1.84-.13-.48-.38-.62-1.81-1.05-2.45-2.04-3.02-1.63-5.6-1.64-8.64.95,1.15,1.87,2.33,3.15,2.98Z"/>
</svg>